<svg width="192" height="31" viewBox="0 0 192 31" fill="none" xmlns="http://www.w3.org/2000/svg">
<g id="Logo" clip-path="url(#clip0_16362_98236)">
<path id="Vector" d="M24.4363 8.54432C24.4127 8.56785 24.3922 8.59137 24.3686 8.61489C22.8721 10.4026 21.352 12.1726 19.8848 13.9808C18.1001 16.1801 16.3594 18.4147 14.6071 20.6228H12.6048C10.8583 16.433 8.91772 11.7315 7.18298 7.56817L7.05655 8.14739C6.03923 13.1811 5.02191 18.2177 3.99577 23.3013H0C1.55538 15.545 3.0843 7.91806 4.6338 0.182308H8.15326C10.1614 5.20128 12.199 10.3026 14.3865 15.7714C18.5646 10.4408 22.578 5.31889 26.6444 0.132324H30.3197C28.7672 7.87689 27.2412 15.495 25.6859 23.2572H21.7136C22.2869 20.3464 22.8603 17.5385 23.3895 14.7188C23.7659 12.7106 24.0893 10.5584 24.4363 8.54432Z" fill="black"></path>
<path id="Vector_2" d="M91.347 11.3669C93.9727 12.7253 94.6636 14.7894 94.2667 17.3738C93.8639 19.9877 92.2614 21.6225 89.8975 22.4016C88.2568 22.9426 86.4839 23.2749 84.758 23.3396C80.8974 23.4777 77.031 23.3925 73.1646 23.3925C72.9265 23.3925 72.6883 23.3366 72.3208 23.2896C73.8762 15.5538 75.4169 7.8857 76.9987 0C81.6443 0.12937 86.181 0.13231 90.7031 0.426334C93.0524 0.579226 94.9459 1.84941 95.3281 4.39859C95.725 7.04479 94.7224 9.19116 92.4379 10.6701C92.1585 10.8524 91.8763 11.0288 91.3441 11.3669H91.347ZM77.1604 20.02C80.38 20.02 83.4466 20.1465 86.4956 19.9495C87.4953 19.8848 88.6479 19.1791 89.3683 18.4176C91.0942 16.5947 90.2562 13.6633 87.8746 13.4457C84.7933 13.1634 81.6678 13.3781 78.4747 13.3781C78.0366 15.592 77.6073 17.7708 77.1634 20.02H77.1604ZM80.4799 3.34892C80.036 5.60114 79.6155 7.38586 79.1274 9.84684L87.707 9.78509C88.1245 9.76157 88.5479 9.53517 88.939 9.34406C90.4032 8.6237 91.2618 7.06832 91.0148 5.6423C90.7913 4.36036 89.7623 3.46359 87.9805 3.38127C85.5518 3.26954 83.1114 3.35186 80.4799 3.35186V3.34892Z" fill="black"></path>
<path id="Vector_3" d="M131.931 8.00343C132.175 6.99493 132.346 6.29221 132.528 5.52775H136.483C135.315 11.3906 134.16 17.1858 132.99 23.0545H129.341V21.4903C127.497 22.7575 125.618 23.3926 123.496 23.3573C118.75 23.2779 115.642 20.0907 115.754 15.3217C115.869 10.5379 118.715 6.72443 123.201 5.63654C126.371 4.86914 129.411 5.11024 131.931 8.00343ZM126.083 8.61206C121.955 8.63264 118.903 12.7137 119.973 16.7683C120.414 18.4471 121.473 19.4615 123.154 19.8437C127.106 20.7376 130.505 18.1766 130.946 13.975C131.284 10.732 129.35 8.59442 126.086 8.61206H126.083Z" fill="black"></path>
<path id="Vector_4" d="M52.6625 3.79002C51.6569 4.63681 50.7308 5.41597 49.8105 6.19219C46.535 3.27254 42.6392 2.78152 38.9904 4.79264C35.5445 6.69203 33.6098 10.873 34.3154 14.8982C34.8182 17.7649 37.2292 19.6496 40.5458 19.8466C43.3625 20.0142 45.8382 19.2233 47.9699 17.268C48.7637 18.1354 49.487 18.9205 50.2633 19.7702C48.5667 21.8901 46.2822 22.928 43.8006 23.1603C41.5543 23.369 39.1668 23.3426 36.9911 22.8104C32.1044 21.6166 29.467 17.3974 30.0462 12.3755C31.2988 1.56721 41.2926 -1.46417 48.4168 0.726303C50.0898 1.24084 51.507 2.14055 52.6625 3.79002Z" fill="black"></path>
<path id="Vector_5" d="M114.225 15.5214H99.9383C99.8619 17.8119 100.929 19.2996 102.923 19.7906C105.204 20.3552 107.374 20.0406 109.406 18.841C109.653 18.6969 109.879 18.5234 110.214 18.2941C110.758 19.1879 111.261 20.0141 111.82 20.9315C110.567 22.2575 108.924 22.969 107.209 23.1131C105.198 23.2836 103.067 23.3307 101.135 22.8455C97.4244 21.9135 95.5397 18.444 95.919 14.5982C96.3865 9.86149 99.4032 6.43318 103.628 5.61285C105.222 5.30413 106.971 5.29237 108.562 5.60403C112.129 6.30087 114.143 8.95884 114.216 12.6077C114.234 13.478 114.216 14.3483 114.216 15.5185L114.225 15.5214ZM110.629 12.8105C110.588 10.9111 109.92 9.56746 108.289 8.90297C106.254 8.07677 104.243 8.25024 102.417 9.47926C101.288 10.2408 100.447 11.2757 100.309 12.8105H110.629Z" fill="black"></path>
<path id="Vector_6" d="M60.6334 23.4954C59.4897 23.2866 58.3077 23.2043 57.211 22.8485C53.5475 21.6607 51.7833 18.5793 52.1009 14.9128C52.7889 6.94776 59.9307 3.95755 66.2257 5.87752C69.7893 6.96246 71.7739 10.4025 71.2565 14.1454C70.4626 19.8818 66.4551 23.3601 60.6334 23.4924V23.4954ZM67.2695 13.4163C67.3048 10.5966 65.6406 8.80011 62.8327 8.63251C58.6341 8.38259 55.3234 12.3166 56.2025 16.5035C56.5965 18.3794 57.7255 19.4996 59.5955 19.9024C63.6648 20.7815 67.2136 17.7884 67.2695 13.4192V13.4163Z" fill="black"></path>
<path id="Vector_7" d="M166.817 28.5967C167.49 27.6411 168.105 26.7708 168.702 25.924C172.489 27.5353 173.826 27.0472 175.867 23.3602C174.494 17.562 173.115 11.7404 171.712 5.80992H175.717C176.702 10.0997 177.681 14.3513 178.657 18.5999C178.772 18.6323 178.887 18.6617 178.998 18.694C181.706 14.3836 184.414 10.0733 187.11 5.78052H190.98C190.759 6.20979 190.615 6.55674 190.418 6.8684C186.596 12.8959 182.785 18.9292 178.925 24.9302C178.163 26.1152 177.299 27.2707 176.302 28.2615C173.865 30.6902 169.669 30.8225 166.817 28.5938V28.5967Z" fill="black"></path>
<path id="Vector_8" d="M152.898 23.0808H149.264C149.24 22.5457 149.219 22.084 149.193 21.446C147.208 22.8485 145.124 23.4512 142.798 23.3483C139.008 23.1807 136.515 20.7845 136.944 17.0327C137.385 13.1781 138.326 9.38224 139.055 5.52466H143.063C142.683 7.51814 142.328 9.4087 141.966 11.2993C141.666 12.8782 141.284 14.4483 141.081 16.0419C140.781 18.3911 142.057 19.7936 144.4 19.8553C147.505 19.9406 149.596 18.4293 150.354 15.3274C151.039 12.5371 151.542 9.69979 152.13 6.88599C152.218 6.45965 152.336 6.03626 152.46 5.53936H156.414C155.241 11.3816 154.077 17.1797 152.892 23.0778L152.898 23.0808Z" fill="black"></path>
<path id="Vector_9" d="M167.287 19.6702C167.52 20.5729 167.737 21.4108 167.943 22.2135C166.023 23.7454 162.142 23.8159 160.34 22.3958C158.928 21.2844 158.511 19.7408 158.778 18.0649C159.181 15.5627 159.734 13.0841 160.213 10.5937C160.313 10.0821 160.366 9.5617 160.454 8.94426C159.513 8.90015 158.699 8.86487 157.696 8.81783C157.899 7.77404 158.084 6.80377 158.293 5.73058H161.119C161.436 4.34279 161.736 3.03439 162.048 1.68188H165.929C165.714 2.98147 165.506 4.24283 165.267 5.68648H170.025C169.769 6.85963 169.557 7.83285 169.328 8.88839H164.573C164.112 11.1494 163.659 13.334 163.224 15.5186C163.083 16.236 162.933 16.9593 162.886 17.6856C162.771 19.5203 163.609 20.3171 165.438 20.126C166.011 20.0671 166.57 19.8525 167.287 19.6702Z" fill="black"></path>
<path id="Vector_10" d="M189.272 23.3455C187.728 23.3572 186.781 22.4546 186.746 20.9404C186.708 19.2321 187.855 18.056 189.539 18.0707C191.039 18.0825 191.991 19.0439 192 20.5493C192.009 22.1723 190.877 23.3308 189.272 23.3455Z" fill="black"></path>
</g>
<defs>
<clipPath id="clip0_16362_98236">
<rect width="192" height="30.1815" fill="white"></rect>
</clipPath>
</defs>
</svg>
