<svg width="379" height="137" viewBox="0 0 379 137" fill="none" xmlns="http://www.w3.org/2000/svg">
<path d="M61.823 31.3077C61.823 14.5692 48.2076 1 31.4122 1C14.6168 1 1.10449 14.5692 1.10449 31.3077" stroke="#04552B" stroke-width="2"/>
<path d="M61.823 30.8953L61.7201 106.768H1.00146L1.10438 30.8953" stroke="#04552B" stroke-width="2"/>
<path d="M25.0471 56.1637H37.07" stroke="#C18F38" stroke-width="2"/>
<path d="M42.0208 116.632H36.7165V135.727H42.0208" stroke="#C18F38" stroke-width="2"/>
<path d="M40.9598 126.179H31.0586" stroke="#C18F38" stroke-width="2"/>
<path d="M31.1575 44.6921V136.278" stroke="#C18F38" stroke-width="2"/>
<path d="M30.804 22C36.1264 22 40.4124 26.2385 40.4124 31.4316C40.4123 36.6248 36.1264 40.8633 30.804 40.8633C25.4815 40.8633 21.1956 36.6248 21.1956 31.4316C21.1956 26.2385 25.4815 22 30.804 22Z" stroke="#C18F38" stroke-width="2"/>
<path d="M21.511 30.9963C26.8335 30.9963 31.1194 35.2348 31.1194 40.4279C31.1194 45.6211 26.8335 49.8596 21.511 49.8596C16.1885 49.8596 11.9026 45.6211 11.9026 40.4279C11.9026 35.2348 16.1885 30.9963 21.511 30.9963Z" stroke="#C18F38" stroke-width="2"/>
<path d="M21.6099 31.5475C26.9324 31.5475 31.2183 35.786 31.2183 40.9792C31.2182 46.1723 26.9323 50.4108 21.6099 50.4108C16.2874 50.4108 12.0015 46.1723 12.0015 40.9792C12.0015 35.786 16.2874 31.5476 21.6099 31.5475Z" stroke="#C18F38" stroke-width="2"/>
<path d="M40.3516 31.5475C45.6741 31.5475 49.96 35.786 49.96 40.9792C49.9599 46.1723 45.674 50.4108 40.3516 50.4108C35.0291 50.4108 30.7432 46.1723 30.7432 40.9792C30.7432 35.786 35.0291 31.5476 40.3516 31.5475Z" stroke="#C18F38" stroke-width="2"/>
<path d="M98.7395 88V40.564H100.509V88H98.7395ZM90.9515 88V40.564H92.7215V88H90.9515ZM94.8455 88V40.564H96.6155V88H94.8455ZM102.633 80.212V78.442H122.811V80.212H102.633ZM102.633 84.106V82.336H122.811V84.106H102.633ZM102.633 88V86.23H122.811V88H102.633ZM148.446 81.097C146.204 81.097 144.335 80.6447 142.841 79.74C141.385 78.8353 140.284 77.6357 139.537 76.141C138.829 74.607 138.475 72.9157 138.475 71.067V40.564H140.245V71.067C140.245 73.3483 140.894 75.2953 142.192 76.908C143.49 78.5207 145.574 79.327 148.446 79.327C151.317 79.327 153.402 78.5207 154.7 76.908C155.998 75.2953 156.647 73.3483 156.647 71.067V40.564H158.417V71.067C158.417 72.9157 158.043 74.607 157.296 76.141C156.588 77.6357 155.486 78.8353 153.992 79.74C152.536 80.6447 150.688 81.097 148.446 81.097ZM148.446 88.885C144.788 88.885 141.621 88.0983 138.947 86.525C136.311 84.9123 134.266 82.749 132.811 80.035C131.395 77.321 130.687 74.3317 130.687 71.067V40.564H132.457V71.067C132.457 74.017 133.086 76.7113 134.345 79.15C135.643 81.5887 137.472 83.5357 139.832 84.991C142.231 86.407 145.102 87.115 148.446 87.115C151.789 87.115 154.641 86.407 157.001 84.991C159.4 83.5357 161.229 81.5887 162.488 79.15C163.786 76.7113 164.435 74.017 164.435 71.067V40.564H166.205V71.067C166.205 74.3317 165.477 77.321 164.022 80.035C162.606 82.749 160.58 84.9123 157.945 86.525C155.309 88.0983 152.143 88.885 148.446 88.885ZM148.446 84.991C145.496 84.991 142.978 84.3617 140.894 83.103C138.848 81.8443 137.275 80.1727 136.174 78.088C135.112 75.964 134.581 73.6237 134.581 71.067V40.564H136.351V71.067C136.351 73.309 136.803 75.3543 137.708 77.203C138.652 79.0123 140.028 80.4677 141.838 81.569C143.647 82.6703 145.85 83.221 148.446 83.221C151.081 83.221 153.284 82.6703 155.054 81.569C156.863 80.4677 158.22 79.0123 159.125 77.203C160.069 75.3543 160.541 73.309 160.541 71.067V40.564H162.311V71.067C162.311 73.6237 161.76 75.964 160.659 78.088C159.597 80.1727 158.023 81.8443 155.939 83.103C153.893 84.3617 151.396 84.991 148.446 84.991ZM204.237 88L176.743 40.564H178.808L206.302 88H204.237ZM208.721 88L181.286 40.564H183.351L210.786 88H208.721ZM213.264 88L185.829 40.564H187.894L215.329 88H213.264ZM197.747 53.367L196.744 51.715L203.175 40.564H205.24L197.747 53.367ZM199.989 57.32L198.927 55.55L207.718 40.564H209.783L199.989 57.32ZM202.231 61.155L201.169 59.503L212.202 40.564H214.267L202.231 61.155ZM175.681 88L188.779 65.521L189.782 67.291L177.746 88H175.681ZM180.165 88L191.021 69.415L192.024 71.185L182.23 88H180.165ZM184.708 88L193.263 73.309L194.266 75.079L186.773 88H184.708ZM268.685 64.282C268.685 61.1353 268.135 58.1853 267.033 55.432C265.971 52.6393 264.437 50.2007 262.431 48.116C260.425 46.0313 258.026 44.399 255.233 43.219C252.441 42.039 249.314 41.449 245.852 41.449C242.391 41.449 239.264 42.039 236.471 43.219C233.679 44.399 231.279 46.0313 229.273 48.116C227.267 50.2007 225.714 52.6393 224.612 55.432C223.55 58.1853 223.019 61.1353 223.019 64.282C223.019 67.4287 223.55 70.3983 224.612 73.191C225.714 75.9443 227.267 78.3633 229.273 80.448C231.279 82.5327 233.679 84.165 236.471 85.345C239.264 86.525 242.391 87.115 245.852 87.115C249.314 87.115 252.441 86.525 255.233 85.345C258.026 84.165 260.425 82.5327 262.431 80.448C264.437 78.3633 265.971 75.9443 267.033 73.191C268.135 70.3983 268.685 67.4287 268.685 64.282ZM264.791 64.282C264.791 60.7813 264.024 57.615 262.49 54.783C260.956 51.9117 258.773 49.6303 255.941 47.939C253.109 46.2477 249.746 45.402 245.852 45.402C241.998 45.402 238.635 46.2477 235.763 47.939C232.931 49.6303 230.748 51.9117 229.214 54.783C227.68 57.615 226.913 60.7813 226.913 64.282C226.913 67.7433 227.68 70.9097 229.214 73.781C230.748 76.6523 232.931 78.9337 235.763 80.625C238.635 82.3163 241.998 83.162 245.852 83.162C249.746 83.162 253.109 82.3163 255.941 80.625C258.773 78.9337 260.956 76.6523 262.49 73.781C264.024 70.9097 264.791 67.7433 264.791 64.282ZM260.897 64.282C260.897 61.5287 260.307 59.031 259.127 56.789C257.947 54.5077 256.236 52.6983 253.994 51.361C251.752 49.9843 249.038 49.296 245.852 49.296C242.706 49.296 239.992 49.9843 237.71 51.361C235.468 52.6983 233.757 54.5077 232.577 56.789C231.397 59.031 230.807 61.5287 230.807 64.282C230.807 67.0353 231.397 69.5527 232.577 71.834C233.757 74.076 235.468 75.8853 237.71 77.262C239.992 78.5993 242.706 79.268 245.852 79.268C249.038 79.268 251.752 78.5993 253.994 77.262C256.236 75.8853 257.947 74.076 259.127 71.834C260.307 69.5527 260.897 67.0353 260.897 64.282ZM245.852 81.097C242.352 81.097 239.343 80.3497 236.825 78.855C234.308 77.321 232.381 75.2757 231.043 72.719C229.706 70.1623 229.037 67.35 229.037 64.282C229.037 61.1747 229.706 58.3623 231.043 55.845C232.381 53.2883 234.308 51.2627 236.825 49.768C239.343 48.234 242.352 47.467 245.852 47.467C249.353 47.467 252.362 48.234 254.879 49.768C257.397 51.2627 259.324 53.2883 260.661 55.845C261.999 58.3623 262.667 61.1747 262.667 64.282C262.667 67.35 261.999 70.1623 260.661 72.719C259.324 75.2757 257.397 77.321 254.879 78.855C252.362 80.3497 249.353 81.097 245.852 81.097ZM245.852 84.991C242.706 84.991 239.854 84.46 237.297 83.398C234.78 82.2967 232.597 80.802 230.748 78.914C228.939 77.026 227.543 74.843 226.559 72.365C225.615 69.8477 225.143 67.1533 225.143 64.282C225.143 61.4107 225.615 58.736 226.559 56.258C227.543 53.7407 228.939 51.538 230.748 49.65C232.597 47.7227 234.78 46.228 237.297 45.166C239.854 44.104 242.706 43.573 245.852 43.573C248.999 43.573 251.831 44.104 254.348 45.166C256.905 46.228 259.088 47.7227 260.897 49.65C262.746 51.538 264.142 53.7407 265.086 56.258C266.07 58.736 266.561 61.4107 266.561 64.282C266.561 67.1533 266.07 69.8477 265.086 72.365C264.142 74.843 262.746 77.026 260.897 78.914C259.088 80.802 256.905 82.2967 254.348 83.398C251.831 84.46 248.999 84.991 245.852 84.991ZM245.852 88.885C242.155 88.885 238.792 88.2557 235.763 86.997C232.774 85.699 230.198 83.929 228.034 81.687C225.871 79.445 224.199 76.849 223.019 73.899C221.839 70.9097 221.249 67.704 221.249 64.282C221.249 60.86 221.839 57.674 223.019 54.724C224.199 51.7347 225.871 49.119 228.034 46.877C230.198 44.635 232.774 42.8847 235.763 41.626C238.792 40.328 242.155 39.679 245.852 39.679C249.55 39.679 252.893 40.328 255.882 41.626C258.911 42.8847 261.507 44.635 263.67 46.877C265.834 49.119 267.505 51.7347 268.685 54.724C269.865 57.674 270.455 60.86 270.455 64.282C270.455 67.704 269.865 70.9097 268.685 73.899C267.505 76.849 265.834 79.445 263.67 81.687C261.507 83.929 258.911 85.699 255.882 86.997C252.893 88.2557 249.55 88.885 245.852 88.885ZM289.427 88V40.564H291.197V88H289.427ZM281.639 88V40.564H283.409V88H281.639ZM285.533 88V40.564H287.303V88H285.533ZM293.321 68.176V66.406H307.186C309.428 66.406 311.454 65.9143 313.263 64.931C315.112 63.9477 316.567 62.5513 317.629 60.742C318.73 58.9327 319.281 56.8087 319.281 54.37C319.281 51.9313 318.73 49.8073 317.629 47.998C316.567 46.1887 315.112 44.7923 313.263 43.809C311.454 42.8257 309.428 42.334 307.186 42.334H293.321V40.564H307.186C309.743 40.564 312.063 41.154 314.148 42.334C316.272 43.4747 317.944 45.0873 319.163 47.172C320.422 49.2173 321.051 51.6167 321.051 54.37C321.051 57.1233 320.422 59.5423 319.163 61.627C317.944 63.6723 316.272 65.285 314.148 66.465C312.063 67.6057 309.743 68.176 307.186 68.176H293.321ZM293.321 64.282V62.512H307.186C309.467 62.512 311.395 61.804 312.968 60.388C314.581 58.9327 315.387 56.9267 315.387 54.37C315.387 51.8133 314.581 49.827 312.968 48.411C311.395 46.9557 309.467 46.228 307.186 46.228H293.321V44.458H307.186C309.035 44.458 310.706 44.871 312.201 45.697C313.696 46.4837 314.895 47.6243 315.8 49.119C316.705 50.5743 317.157 52.3247 317.157 54.37C317.157 56.4153 316.705 58.1853 315.8 59.68C314.895 61.1353 313.696 62.276 312.201 63.102C310.706 63.8887 309.035 64.282 307.186 64.282H293.321ZM293.321 60.388V58.618H307.186C308.366 58.618 309.369 58.2837 310.195 57.615C311.06 56.907 311.493 55.8253 311.493 54.37C311.493 52.8753 311.06 51.7937 310.195 51.125C309.369 50.4563 308.366 50.122 307.186 50.122H293.321V48.352H307.186C308.877 48.352 310.313 48.8633 311.493 49.886C312.673 50.9087 313.263 52.4033 313.263 54.37C313.263 56.3367 312.673 57.8313 311.493 58.854C310.313 59.8767 308.877 60.388 307.186 60.388H293.321ZM318.632 88L310.313 69.769C310.588 69.7297 310.864 69.6903 311.139 69.651C311.454 69.5723 311.749 69.474 312.024 69.356L320.579 88H318.632ZM314.325 88L306.124 70.182C306.439 70.182 306.753 70.182 307.068 70.182C307.422 70.1427 307.756 70.1033 308.071 70.064L316.272 88H314.325ZM310.018 88L301.876 70.241H303.823L311.965 88H310.018ZM338.581 88L355.75 40.564H357.638L340.469 88H338.581ZM330.321 88L347.49 40.564H349.319L332.209 88H330.321ZM334.451 88L351.561 40.564H353.508L336.339 88H334.451ZM373.155 88L357.756 45.461L358.7 42.806L375.043 88H373.155ZM369.025 88L355.75 51.243L356.635 48.529L370.913 88H369.025ZM364.895 88L353.685 56.966L354.629 54.311L366.783 88H364.895ZM348.198 72.306L348.847 70.536H356.635L357.284 72.306H348.198ZM346.782 76.259L347.431 74.489H358.051L358.7 76.259H346.782ZM345.366 80.153L346.015 78.383H359.467L360.116 80.153H345.366Z" fill="#04552B"/>
<path d="M120.117 118.195C120.117 117.152 120.035 116.332 119.871 115.734C119.707 115.137 119.337 114.697 118.763 114.416C118.189 114.123 117.298 113.936 116.091 113.854C114.884 113.76 113.232 113.695 111.134 113.66L101.361 113.52C98.9468 113.484 97.0073 113.338 95.5425 113.08C94.0776 112.822 92.9702 112.418 92.2202 111.867C91.4702 111.305 90.9663 110.555 90.7085 109.617C90.4624 108.68 90.3394 107.508 90.3394 106.102C90.3394 104.566 90.5093 103.301 90.8491 102.305C91.2007 101.309 91.8276 100.529 92.73 99.9668C93.644 99.4043 94.9331 99.0117 96.5972 98.7891C98.2612 98.5547 100.412 98.4375 103.048 98.4375H110.572C112.962 98.4375 114.955 98.5137 116.548 98.666C118.142 98.8184 119.408 99.1699 120.345 99.7207C121.283 100.271 121.951 101.127 122.349 102.287C122.759 103.447 122.964 105.041 122.964 107.068H119.589C119.589 105.498 119.437 104.314 119.132 103.518C118.839 102.709 118.347 102.158 117.656 101.865C116.976 101.572 116.056 101.414 114.896 101.391C113.736 101.367 112.294 101.355 110.572 101.355H103.224C101.126 101.355 99.4448 101.396 98.1792 101.479C96.9253 101.561 95.9761 101.748 95.3315 102.041C94.687 102.334 94.2534 102.803 94.0308 103.447C93.8198 104.092 93.7144 104.977 93.7144 106.102C93.7144 107.051 93.7905 107.812 93.9429 108.387C94.0952 108.961 94.4351 109.4 94.9624 109.705C95.5015 109.998 96.3276 110.203 97.4409 110.32C98.5542 110.426 100.072 110.49 101.994 110.514L112.47 110.654C114.931 110.689 116.894 110.836 118.359 111.094C119.835 111.34 120.937 111.744 121.664 112.307C122.402 112.869 122.888 113.631 123.123 114.592C123.369 115.541 123.492 116.742 123.492 118.195C123.492 119.777 123.339 121.107 123.035 122.186C122.742 123.252 122.167 124.107 121.312 124.752C120.457 125.396 119.22 125.859 117.603 126.141C115.986 126.422 113.859 126.562 111.222 126.562H102.996C100.593 126.562 98.5776 126.457 96.9487 126.246C95.3198 126.035 94.019 125.613 93.0464 124.98C92.0854 124.336 91.394 123.381 90.9722 122.115C90.5503 120.85 90.3394 119.162 90.3394 117.053H93.7144C93.7144 118.705 93.8491 119.982 94.1187 120.885C94.3882 121.787 94.8569 122.438 95.5249 122.836C96.2046 123.223 97.1479 123.457 98.355 123.539C99.5737 123.609 101.121 123.645 102.996 123.645H111.046C113.144 123.645 114.802 123.58 116.021 123.451C117.24 123.311 118.142 123.053 118.728 122.678C119.314 122.291 119.689 121.74 119.853 121.025C120.029 120.311 120.117 119.367 120.117 118.195ZM161.625 126.562C158.988 126.562 156.82 126.381 155.121 126.018C153.422 125.666 152.092 125.01 151.131 124.049C150.182 123.088 149.514 121.705 149.127 119.9C148.752 118.096 148.564 115.746 148.564 112.852V99H151.939V112.852C151.939 114.844 152.01 116.496 152.15 117.809C152.291 119.121 152.555 120.17 152.941 120.955C153.328 121.74 153.879 122.326 154.594 122.713C155.32 123.1 156.258 123.352 157.406 123.469C158.555 123.586 159.961 123.645 161.625 123.645H167.988C169.664 123.645 171.07 123.586 172.207 123.469C173.355 123.352 174.287 123.1 175.002 122.713C175.728 122.326 176.285 121.74 176.672 120.955C177.059 120.17 177.322 119.121 177.463 117.809C177.603 116.496 177.674 114.844 177.674 112.852V99H181.049V112.852C181.049 115.746 180.855 118.096 180.469 119.9C180.094 121.705 179.426 123.088 178.465 124.049C177.516 125.01 176.191 125.666 174.492 126.018C172.793 126.381 170.625 126.562 167.988 126.562H161.625ZM207.334 126V99H210.709V126H207.334ZM249.757 126V101.812H236.257V99H266.632V101.812H253.132V126H249.757ZM292.179 126V99H318.687V101.812H295.554V110.812H317.72V113.625H295.554V123.188H319.179V126H292.179ZM372.939 118.195C372.939 117.152 372.857 116.332 372.693 115.734C372.529 115.137 372.16 114.697 371.586 114.416C371.012 114.123 370.121 113.936 368.914 113.854C367.707 113.76 366.055 113.695 363.957 113.66L354.184 113.52C351.769 113.484 349.83 113.338 348.365 113.08C346.9 112.822 345.793 112.418 345.043 111.867C344.293 111.305 343.789 110.555 343.531 109.617C343.285 108.68 343.162 107.508 343.162 106.102C343.162 104.566 343.332 103.301 343.672 102.305C344.023 101.309 344.65 100.529 345.553 99.9668C346.467 99.4043 347.756 99.0117 349.42 98.7891C351.084 98.5547 353.234 98.4375 355.871 98.4375H363.394C365.785 98.4375 367.777 98.5137 369.371 98.666C370.965 98.8184 372.23 99.1699 373.168 99.7207C374.105 100.271 374.773 101.127 375.172 102.287C375.582 103.447 375.787 105.041 375.787 107.068H372.412C372.412 105.498 372.26 104.314 371.955 103.518C371.662 102.709 371.17 102.158 370.478 101.865C369.799 101.572 368.879 101.414 367.719 101.391C366.559 101.367 365.117 101.355 363.394 101.355H356.047C353.949 101.355 352.267 101.396 351.002 101.479C349.748 101.561 348.799 101.748 348.154 102.041C347.51 102.334 347.076 102.803 346.853 103.447C346.642 104.092 346.537 104.977 346.537 106.102C346.537 107.051 346.613 107.812 346.766 108.387C346.918 108.961 347.258 109.4 347.785 109.705C348.324 109.998 349.15 110.203 350.264 110.32C351.377 110.426 352.894 110.49 354.816 110.514L365.293 110.654C367.754 110.689 369.717 110.836 371.182 111.094C372.658 111.34 373.76 111.744 374.486 112.307C375.225 112.869 375.711 113.631 375.945 114.592C376.191 115.541 376.314 116.742 376.314 118.195C376.314 119.777 376.162 121.107 375.857 122.186C375.564 123.252 374.99 124.107 374.135 124.752C373.279 125.396 372.043 125.859 370.426 126.141C368.809 126.422 366.682 126.562 364.045 126.562H355.818C353.416 126.562 351.4 126.457 349.771 126.246C348.142 126.035 346.842 125.613 345.869 124.98C344.908 124.336 344.217 123.381 343.795 122.115C343.373 120.85 343.162 119.162 343.162 117.053H346.537C346.537 118.705 346.672 119.982 346.941 120.885C347.211 121.787 347.68 122.438 348.348 122.836C349.027 123.223 349.971 123.457 351.178 123.539C352.396 123.609 353.943 123.645 355.818 123.645H363.869C365.967 123.645 367.625 123.58 368.844 123.451C370.062 123.311 370.965 123.053 371.551 122.678C372.137 122.291 372.512 121.74 372.676 121.025C372.851 120.311 372.939 119.367 372.939 118.195Z" fill="#C18F38"/>
<path d="M89.8198 29V14.75H91.6011V20.9844H104.664V14.75H106.445V29H104.664V22.4688H91.6011V29H89.8198ZM119.194 29.2969C117.802 29.2969 116.658 29.201 115.761 29.0093C114.864 28.8237 114.162 28.4774 113.655 27.9702C113.154 27.4631 112.802 26.7332 112.598 25.7808C112.4 24.8283 112.301 23.5882 112.301 22.0605V21.6895C112.301 20.4277 112.363 19.3701 112.486 18.5166C112.61 17.6569 112.823 16.958 113.126 16.4199C113.429 15.8818 113.841 15.4705 114.36 15.186C114.886 14.9015 115.545 14.7098 116.336 14.6108C117.128 14.5057 118.08 14.4531 119.194 14.4531H122.933C124.046 14.4531 124.998 14.5057 125.79 14.6108C126.582 14.7098 127.237 14.9015 127.757 15.186C128.282 15.4705 128.697 15.8818 129 16.4199C129.303 16.958 129.516 17.6569 129.64 18.5166C129.764 19.3701 129.826 20.4277 129.826 21.6895V22.0605C129.826 23.5882 129.724 24.8283 129.519 25.7808C129.322 26.7332 128.969 27.4631 128.462 27.9702C127.961 28.4774 127.262 28.8237 126.365 29.0093C125.468 29.201 124.324 29.2969 122.933 29.2969H119.194ZM119.194 27.7568H122.933C123.817 27.7568 124.562 27.7259 125.168 27.6641C125.774 27.6022 126.266 27.4692 126.643 27.2651C127.027 27.061 127.318 26.7518 127.516 26.3374C127.72 25.923 127.859 25.3695 127.933 24.6768C128.007 23.984 128.044 23.112 128.044 22.0605V21.6895C128.044 20.6009 128.007 19.7041 127.933 18.999C127.859 18.2939 127.72 17.7373 127.516 17.3291C127.318 16.9209 127.027 16.624 126.643 16.4385C126.266 16.2467 125.774 16.1261 125.168 16.0767C124.562 16.021 123.817 15.9932 122.933 15.9932H119.194C118.309 15.9932 117.564 16.021 116.958 16.0767C116.352 16.1261 115.857 16.2467 115.474 16.4385C115.096 16.624 114.806 16.9209 114.601 17.3291C114.404 17.7373 114.267 18.2939 114.193 18.999C114.119 19.7041 114.082 20.6009 114.082 21.6895V22.0605C114.082 23.112 114.119 23.984 114.193 24.6768C114.267 25.3695 114.404 25.923 114.601 26.3374C114.806 26.7518 115.096 27.061 115.474 27.2651C115.857 27.4692 116.352 27.6022 116.958 27.6641C117.564 27.7259 118.309 27.7568 119.194 27.7568ZM141.869 29V16.2344H134.744V14.75H150.776V16.2344H143.651V29H141.869ZM156.279 29V14.75H170.269V16.2344H158.06V20.9844H169.759V22.4688H158.06V27.5156H170.529V29H156.279ZM175.754 29V14.75H177.535V27.5156H188.817V29H175.754Z" fill="#C18F38"/>
</svg>
