<svg width="80" height="80" viewBox="0 0 80 80" fill="none" xmlns="http://www.w3.org/2000/svg">
<circle cx="40" cy="40" r="40" fill="white"/>
<path d="M36.46 27.015C35.875 27.0107 35.3015 27.1775 34.81 27.495C34.3177 27.8124 33.9259 28.2633 33.68 28.795H33.39C32.9843 28.7936 32.5824 28.8727 32.2075 29.0277C31.8325 29.1826 31.492 29.4103 31.2056 29.6977C30.9192 29.985 30.6926 30.3262 30.5389 30.7017C30.3852 31.0771 30.3074 31.4793 30.31 31.885V32.065C29.9646 32.2196 29.665 32.4607 29.44 32.765C29.2165 33.0567 29.0718 33.4011 29.02 33.765C28.3847 33.9544 27.8274 34.3438 27.431 34.8753C27.0346 35.4068 26.8204 36.052 26.82 36.715C26.8204 37.2871 26.9797 37.848 27.28 38.335C26.9639 38.6768 26.7195 39.0787 26.5615 39.5167C26.4035 39.9547 26.335 40.42 26.36 40.885C26.4052 41.8135 26.8149 42.6867 27.5 43.315C27.2911 43.8106 27.202 44.3485 27.24 44.885C27.2715 45.4271 27.429 45.9544 27.7 46.425C27.9721 46.8952 28.3493 47.296 28.8021 47.5962C29.2549 47.8963 29.771 48.0876 30.31 48.155H30.47C30.6233 48.5919 30.8888 48.9808 31.2398 49.2827C31.5908 49.5846 32.0151 49.7888 32.47 49.875C32.4174 50.366 32.4688 50.8627 32.6207 51.3326C32.7727 51.8025 33.0218 52.2352 33.3519 52.6025C33.682 52.9698 34.0857 53.2636 34.5368 53.4647C34.9878 53.6658 35.4762 53.7697 35.97 53.7697C36.4639 53.7697 36.9522 53.6658 37.4033 53.4647C37.8544 53.2636 38.2581 52.9698 38.5882 52.6025C38.9183 52.2352 39.1674 51.8025 39.3193 51.3326C39.4712 50.8627 39.5226 50.366 39.47 49.875V30.095C39.4713 29.6901 39.3926 29.289 39.2383 28.9147C39.0839 28.5405 38.8571 28.2004 38.5709 27.9141C38.2846 27.6279 37.9445 27.4011 37.5702 27.2467C37.196 27.0924 36.7949 27.0137 36.39 27.015H36.46Z" fill="#4EA8ED"/>
<path d="M42.62 38.4551H40.86V37.5751H42.62C42.7367 37.5751 42.8486 37.5288 42.9311 37.4462C43.0136 37.3637 43.06 37.2518 43.06 37.1351V34.0551H43.94V37.1351C43.9374 37.4844 43.7975 37.8186 43.5505 38.0656C43.3035 38.3126 42.9693 38.4525 42.62 38.4551ZM43.5 33.1751C43.2372 33.177 42.9799 33.1005 42.7609 32.9553C42.5419 32.8101 42.3712 32.6028 42.2707 32.3601C42.1702 32.1173 42.1444 31.85 42.1967 31.5925C42.249 31.335 42.3769 31.099 42.5642 30.9146C42.7514 30.7303 42.9894 30.606 43.2476 30.5577C43.5059 30.5093 43.7727 30.5392 44.0139 30.6435C44.2551 30.7477 44.4597 30.9215 44.6016 31.1427C44.7434 31.3639 44.816 31.6224 44.81 31.8851C44.8022 32.2283 44.6611 32.5549 44.4165 32.7957C44.1719 33.0365 43.8432 33.1726 43.5 33.1751ZM43.5 31.4151C43.3833 31.4151 43.2714 31.4615 43.1889 31.544C43.1063 31.6265 43.06 31.7384 43.06 31.8551C43.06 31.9718 43.1063 32.0837 43.1889 32.1662C43.2714 32.2488 43.3833 32.2951 43.5 32.2951C43.6167 32.2951 43.7286 32.2488 43.8111 32.1662C43.8936 32.0837 43.94 31.9718 43.94 31.8551C43.94 31.7384 43.8936 31.6265 43.8111 31.544C43.7286 31.4615 43.6167 31.4151 43.5 31.4151ZM43.94 46.4151H43.06V43.2951C43.06 43.1784 43.0136 43.0665 42.9311 42.984C42.8486 42.9015 42.7367 42.8551 42.62 42.8551H40.86V41.9751H42.62C42.9693 41.9777 43.3035 42.1176 43.5505 42.3646C43.7975 42.6116 43.9374 42.9458 43.94 43.2951V46.4151ZM43.5 49.8851C43.2385 49.8871 42.9823 49.8114 42.7639 49.6675C42.5455 49.5237 42.3748 49.3182 42.2734 49.0772C42.1719 48.8362 42.1443 48.5705 42.1941 48.3138C42.2439 48.0571 42.3689 47.8209 42.5531 47.6353C42.7373 47.4497 42.9724 47.323 43.2288 47.2713C43.4851 47.2195 43.751 47.2451 43.9928 47.3447C44.2346 47.4443 44.4413 47.6135 44.5868 47.8307C44.7323 48.048 44.81 48.3036 44.81 48.5651C44.8074 48.9127 44.6689 49.2454 44.424 49.4921C44.1792 49.7388 43.8475 49.8799 43.5 49.8851ZM43.5 48.1251C43.4418 48.1238 43.384 48.1342 43.33 48.1558C43.276 48.1775 43.2269 48.2098 43.1858 48.2509C43.1447 48.2921 43.1123 48.3411 43.0907 48.3951C43.0691 48.4491 43.0586 48.507 43.06 48.5651C43.06 48.6818 43.1063 48.7937 43.1889 48.8762C43.2714 48.9588 43.3833 49.0051 43.5 49.0051C43.6167 49.0051 43.7286 48.9588 43.8111 48.8762C43.8936 48.7937 43.94 48.6818 43.94 48.5651C43.9348 48.4519 43.8862 48.3451 43.8042 48.2668C43.7223 48.1886 43.6133 48.145 43.5 48.1451V48.1251ZM45.25 40.6351H40.86V39.7551H45.25C45.6001 39.7551 45.9358 39.6161 46.1834 39.3685C46.4309 39.121 46.57 38.7852 46.57 38.4351V37.1351H47.45V38.4551C47.4513 38.7444 47.3953 39.0311 47.2852 39.2986C47.1751 39.5661 47.0131 39.8092 46.8086 40.0137C46.604 40.2183 46.361 40.3803 46.0935 40.4904C45.8259 40.6004 45.5393 40.6564 45.25 40.6551V40.6351ZM47 36.2551C46.7389 36.2551 46.4837 36.1777 46.2666 36.0327C46.0496 35.8876 45.8804 35.6815 45.7805 35.4403C45.6806 35.1991 45.6544 34.9337 45.7053 34.6776C45.7563 34.4215 45.882 34.1863 46.0666 34.0017C46.2512 33.8171 46.4864 33.6914 46.7425 33.6405C46.9985 33.5896 47.2639 33.6157 47.5051 33.7156C47.7463 33.8155 47.9525 33.9847 48.0975 34.2018C48.2426 34.4188 48.32 34.674 48.32 34.9351C48.3174 35.2844 48.1775 35.6186 47.9305 35.8656C47.6835 36.1126 47.3493 36.2525 47 36.2551ZM47 34.4951C46.913 34.4951 46.8279 34.5209 46.7555 34.5693C46.6832 34.6176 46.6268 34.6863 46.5935 34.7667C46.5602 34.8471 46.5515 34.9356 46.5684 35.021C46.5854 35.1063 46.6273 35.1847 46.6889 35.2462C46.7504 35.3078 46.8288 35.3497 46.9141 35.3667C46.9995 35.3836 47.088 35.3749 47.1684 35.3416C47.2488 35.3083 47.3175 35.2519 47.3658 35.1796C47.4142 35.1072 47.44 35.0221 47.44 34.9351C47.44 34.8184 47.3936 34.7065 47.3111 34.624C47.2286 34.5415 47.1167 34.4951 47 34.4951ZM46.56 41.9751H47.44V46.3851H46.56V41.9751ZM48.76 35.8151H49.64V42.8151H48.76V35.8151ZM48.76 43.7351H49.64V44.6151H48.76V43.7351Z" fill="#4EA8ED"/>
<path d="M36.46 29.655H37.34V30.535H36.46V29.655ZM34.26 39.775H35.14V40.655H34.26V39.775ZM36.9 49.465H37.78V50.345H36.9V49.465ZM29.43 42.885H30.31V43.765H29.43V42.885ZM37.34 36.725H38.22V37.605H37.34V36.725ZM29 37.575H29.88V38.455H29V37.575Z" fill="#04162B"/>
<path d="M36.46 27.015C35.875 27.0107 35.3015 27.1775 34.81 27.495C34.3177 27.8124 33.9259 28.2633 33.68 28.795H33.39C32.9843 28.7936 32.5824 28.8727 32.2075 29.0277C31.8325 29.1826 31.492 29.4103 31.2056 29.6977C30.9192 29.985 30.6926 30.3262 30.5389 30.7017C30.3852 31.0771 30.3074 31.4793 30.31 31.885V32.065C29.9646 32.2196 29.665 32.4607 29.44 32.765C29.2165 33.0567 29.0718 33.4011 29.02 33.765C28.3847 33.9544 27.8274 34.3438 27.431 34.8753C27.0346 35.4068 26.8204 36.052 26.82 36.715C26.8204 37.2871 26.9797 37.848 27.28 38.335C26.9639 38.6768 26.7195 39.0787 26.5615 39.5167C26.4035 39.9547 26.335 40.42 26.36 40.885C26.4052 41.8135 26.8149 42.6867 27.5 43.315C27.2911 43.8106 27.202 44.3485 27.24 44.885C27.2715 45.4271 27.429 45.9544 27.7 46.425C27.9721 46.8952 28.3493 47.296 28.8021 47.5962C29.2549 47.8963 29.771 48.0876 30.31 48.155H30.47C30.6233 48.5919 30.8888 48.9808 31.2398 49.2827C31.5908 49.5846 32.0151 49.7888 32.47 49.875C32.4174 50.366 32.4688 50.8627 32.6207 51.3326C32.7727 51.8025 33.0218 52.2352 33.3519 52.6025C33.682 52.9698 34.0857 53.2636 34.5368 53.4647C34.9878 53.6658 35.4762 53.7697 35.97 53.7697C36.4639 53.7697 36.9522 53.6658 37.4033 53.4647C37.8544 53.2636 38.2581 52.9698 38.5882 52.6025C38.9183 52.2352 39.1674 51.8025 39.3193 51.3326C39.4712 50.8627 39.5226 50.366 39.47 49.875V30.095C39.4713 29.6901 39.3926 29.289 39.2383 28.9147C39.0839 28.5405 38.8571 28.2004 38.5709 27.9141C38.2846 27.6279 37.9445 27.4011 37.5702 27.2467C37.196 27.0924 36.7949 27.0137 36.39 27.015H36.46Z" fill="#4EA8ED"/>
<path d="M42.62 38.4551H40.86V37.5751H42.62C42.7367 37.5751 42.8486 37.5288 42.9311 37.4462C43.0136 37.3637 43.06 37.2518 43.06 37.1351V34.0551H43.94V37.1351C43.9374 37.4844 43.7975 37.8186 43.5505 38.0656C43.3035 38.3126 42.9693 38.4525 42.62 38.4551ZM43.5 33.1751C43.2372 33.177 42.9799 33.1005 42.7609 32.9553C42.5419 32.8101 42.3712 32.6028 42.2707 32.3601C42.1702 32.1173 42.1444 31.85 42.1967 31.5925C42.249 31.335 42.3769 31.099 42.5642 30.9146C42.7514 30.7303 42.9894 30.606 43.2476 30.5577C43.5059 30.5093 43.7727 30.5392 44.0139 30.6435C44.2551 30.7477 44.4597 30.9215 44.6016 31.1427C44.7434 31.3639 44.816 31.6224 44.81 31.8851C44.8022 32.2283 44.6611 32.5549 44.4165 32.7957C44.1719 33.0365 43.8432 33.1726 43.5 33.1751ZM43.5 31.4151C43.3833 31.4151 43.2714 31.4615 43.1889 31.544C43.1063 31.6265 43.06 31.7384 43.06 31.8551C43.06 31.9718 43.1063 32.0837 43.1889 32.1662C43.2714 32.2488 43.3833 32.2951 43.5 32.2951C43.6167 32.2951 43.7286 32.2488 43.8111 32.1662C43.8936 32.0837 43.94 31.9718 43.94 31.8551C43.94 31.7384 43.8936 31.6265 43.8111 31.544C43.7286 31.4615 43.6167 31.4151 43.5 31.4151ZM43.94 46.4151H43.06V43.2951C43.06 43.1784 43.0136 43.0665 42.9311 42.984C42.8486 42.9015 42.7367 42.8551 42.62 42.8551H40.86V41.9751H42.62C42.9693 41.9777 43.3035 42.1176 43.5505 42.3646C43.7975 42.6116 43.9374 42.9458 43.94 43.2951V46.4151ZM43.5 49.8851C43.2385 49.8871 42.9823 49.8114 42.7639 49.6675C42.5455 49.5237 42.3748 49.3182 42.2734 49.0772C42.1719 48.8362 42.1443 48.5705 42.1941 48.3138C42.2439 48.0571 42.3689 47.8209 42.5531 47.6353C42.7373 47.4497 42.9724 47.323 43.2288 47.2713C43.4851 47.2195 43.751 47.2451 43.9928 47.3447C44.2346 47.4443 44.4413 47.6135 44.5868 47.8307C44.7323 48.048 44.81 48.3036 44.81 48.5651C44.8074 48.9127 44.6689 49.2454 44.424 49.4921C44.1792 49.7388 43.8475 49.8799 43.5 49.8851ZM43.5 48.1251C43.4418 48.1238 43.384 48.1342 43.33 48.1558C43.276 48.1775 43.2269 48.2098 43.1858 48.2509C43.1447 48.2921 43.1123 48.3411 43.0907 48.3951C43.0691 48.4491 43.0586 48.507 43.06 48.5651C43.06 48.6818 43.1063 48.7937 43.1889 48.8762C43.2714 48.9588 43.3833 49.0051 43.5 49.0051C43.6167 49.0051 43.7286 48.9588 43.8111 48.8762C43.8936 48.7937 43.94 48.6818 43.94 48.5651C43.9348 48.4519 43.8862 48.3451 43.8042 48.2668C43.7223 48.1886 43.6133 48.145 43.5 48.1451V48.1251ZM45.25 40.6351H40.86V39.7551H45.25C45.6001 39.7551 45.9358 39.6161 46.1834 39.3685C46.4309 39.121 46.57 38.7852 46.57 38.4351V37.1351H47.45V38.4551C47.4513 38.7444 47.3953 39.0311 47.2852 39.2986C47.1751 39.5661 47.0131 39.8092 46.8086 40.0137C46.604 40.2183 46.361 40.3803 46.0935 40.4904C45.8259 40.6004 45.5393 40.6564 45.25 40.6551V40.6351ZM47 36.2551C46.7389 36.2551 46.4837 36.1777 46.2666 36.0327C46.0496 35.8876 45.8804 35.6815 45.7805 35.4403C45.6806 35.1991 45.6544 34.9337 45.7053 34.6776C45.7563 34.4215 45.882 34.1863 46.0666 34.0017C46.2512 33.8171 46.4864 33.6914 46.7425 33.6405C46.9985 33.5896 47.2639 33.6157 47.5051 33.7156C47.7463 33.8155 47.9525 33.9847 48.0975 34.2018C48.2426 34.4188 48.32 34.674 48.32 34.9351C48.3174 35.2844 48.1775 35.6186 47.9305 35.8656C47.6835 36.1126 47.3493 36.2525 47 36.2551ZM47 34.4951C46.913 34.4951 46.8279 34.5209 46.7555 34.5693C46.6832 34.6176 46.6268 34.6863 46.5935 34.7667C46.5602 34.8471 46.5515 34.9356 46.5684 35.021C46.5854 35.1063 46.6273 35.1847 46.6889 35.2462C46.7504 35.3078 46.8288 35.3497 46.9141 35.3667C46.9995 35.3836 47.088 35.3749 47.1684 35.3416C47.2488 35.3083 47.3175 35.2519 47.3658 35.1796C47.4142 35.1072 47.44 35.0221 47.44 34.9351C47.44 34.8184 47.3936 34.7065 47.3111 34.624C47.2286 34.5415 47.1167 34.4951 47 34.4951ZM46.56 41.9751H47.44V46.3851H46.56V41.9751ZM48.76 35.8151H49.64V42.8151H48.76V35.8151ZM48.76 43.7351H49.64V44.6151H48.76V43.7351Z" fill="#4EA8ED"/>
<path d="M36.46 29.655H37.34V30.535H36.46V29.655ZM34.26 39.775H35.14V40.655H34.26V39.775ZM36.9 49.465H37.78V50.345H36.9V49.465ZM29.43 42.885H30.31V43.765H29.43V42.885ZM37.34 36.725H38.22V37.605H37.34V36.725ZM29 37.575H29.88V38.455H29V37.575Z" fill="#04162B"/>
<path d="M36.44 26.655C36.9918 26.655 37.5359 26.7854 38.0277 27.0356C38.5195 27.2859 38.9452 27.6489 39.27 28.095C39.4066 27.7973 39.6042 27.5316 39.85 27.315C40.0921 27.1108 40.3751 26.9608 40.68 26.875C40.985 26.7855 41.3061 26.765 41.62 26.815C44.8546 27.2986 47.808 28.9274 49.9429 31.405C52.0777 33.8827 53.252 37.0445 53.252 40.315C53.252 43.5856 52.0777 46.7474 49.9429 49.225C47.808 51.7027 44.8546 53.3315 41.62 53.815C41.1079 53.8961 40.5836 53.7929 40.1405 53.5237C39.6973 53.2546 39.3641 52.8369 39.2 52.345C38.7129 52.9752 38.0489 53.4457 37.2928 53.6961C36.5367 53.9466 35.7231 53.9656 34.9561 53.7507C34.1892 53.5359 33.5038 53.097 32.9879 52.4903C32.4719 51.8835 32.1488 51.1365 32.06 50.345C31.6358 50.2254 31.2431 50.0137 30.91 49.725C30.5772 49.4292 30.3084 49.0685 30.12 48.665C29.1904 48.5137 28.3441 48.0391 27.73 47.325C27.1026 46.614 26.7482 45.7032 26.73 44.755C26.7424 44.3091 26.8338 43.869 27 43.455C26.3526 42.7761 25.9687 41.8884 25.9174 40.9517C25.8661 40.015 26.1507 39.0907 26.72 38.345C26.4995 37.9054 26.3742 37.4243 26.3521 36.9329C26.3301 36.4416 26.4118 35.9512 26.592 35.4936C26.7723 35.0359 27.0469 34.6215 27.398 34.2771C27.7492 33.9328 28.169 33.6663 28.63 33.495C28.7196 33.1513 28.8759 32.8285 29.09 32.545C29.3016 32.2618 29.5708 32.0266 29.88 31.855C29.8983 30.9363 30.2762 30.0614 30.9325 29.4182C31.5888 28.775 32.4711 28.4149 33.39 28.415C33.6983 27.879 34.1427 27.4339 34.6783 27.1249C35.2139 26.8158 35.8216 26.6537 36.44 26.655ZM36.44 27.535C35.7398 27.535 35.0683 27.8132 34.5732 28.3083C34.0781 28.8034 33.8 29.4749 33.8 30.175C33.8 30.8752 34.0781 31.5467 34.5732 32.0418C35.0683 32.5369 35.7398 32.815 36.44 32.815V33.695C35.9016 33.7011 35.3691 33.5833 34.8836 33.3506C34.398 33.1179 33.9725 32.7767 33.64 32.3533C33.3074 31.9298 33.0768 31.4356 32.9658 30.9088C32.8548 30.3819 32.8665 29.8366 33 29.315C32.4305 29.3871 31.9002 29.6434 31.49 30.045C31.0813 30.443 30.8113 30.9619 30.72 31.525C30.8565 31.5151 30.9935 31.5151 31.13 31.525C31.8302 31.525 32.5017 31.8032 32.9968 32.2983C33.4919 32.7934 33.77 33.4649 33.77 34.165H32.89C32.8979 33.8137 32.8004 33.468 32.6101 33.1725C32.4198 32.877 32.1454 32.6453 31.8222 32.5071C31.499 32.369 31.1419 32.3308 30.7968 32.3974C30.4517 32.464 30.1345 32.6325 29.8859 32.881C29.6374 33.1295 29.469 33.4467 29.4024 33.7918C29.3357 34.1369 29.3739 34.4941 29.5121 34.8172C29.6502 35.1404 29.882 35.4148 30.1774 35.6051C30.4729 35.7955 30.8186 35.8929 31.17 35.885V36.765C30.531 36.7655 29.9137 36.5334 29.4334 36.112C28.9531 35.6905 28.6426 35.1087 28.56 34.475C28.2491 34.6476 27.9766 34.8816 27.759 35.1629C27.5415 35.4441 27.3834 35.7667 27.2946 36.111C27.2057 36.4553 27.1878 36.814 27.242 37.1655C27.2963 37.5169 27.4215 37.8536 27.61 38.155L27.78 38.435L27.56 38.675C27.0819 39.2036 26.8034 39.8824 26.7723 40.5944C26.7413 41.3064 26.9597 42.0069 27.39 42.575C27.7484 42.0127 28.2417 41.5489 28.825 41.2258C29.4083 40.9027 30.0632 40.7306 30.73 40.725V41.615C30.1582 41.6132 29.5972 41.771 29.1102 42.0709C28.6233 42.3707 28.2298 42.8006 27.9741 43.3121C27.7183 43.8235 27.6105 44.3963 27.6628 44.9657C27.7151 45.5352 27.9254 46.0787 28.27 46.535C28.6651 47.0727 29.2281 47.4632 29.87 47.645C29.87 47.545 29.87 47.435 29.87 47.335C29.87 46.5182 30.1945 45.7348 30.7721 45.1571C31.3497 44.5795 32.1331 44.255 32.95 44.255V45.135C32.3665 45.135 31.8069 45.3668 31.3944 45.7794C30.9818 46.192 30.75 46.7516 30.75 47.335C30.7512 47.7723 30.8798 48.1997 31.12 48.565C31.3657 48.9258 31.7141 49.2045 32.12 49.365C32.2742 48.4425 32.7468 47.6032 33.4557 46.993C34.1645 46.3828 35.0648 46.0403 36 46.025V46.885C35.3908 46.885 34.7953 47.0657 34.2888 47.4041C33.7823 47.7425 33.3876 48.2236 33.1544 48.7864C32.9213 49.3492 32.8603 49.9685 32.9792 50.5659C33.098 51.1634 33.3914 51.7122 33.8221 52.1429C34.2529 52.5737 34.8017 52.867 35.3991 52.9859C35.9966 53.1047 36.6159 53.0437 37.1787 52.8106C37.7415 52.5775 38.2225 52.1827 38.5609 51.6762C38.8994 51.1697 39.08 50.5742 39.08 49.965V30.175C39.08 29.4749 38.8019 28.8034 38.3068 28.3083C37.8117 27.8132 37.1402 27.535 36.44 27.535ZM41.49 27.685C41.3021 27.6451 41.1079 27.6451 40.92 27.685C40.7387 27.7449 40.5695 27.8363 40.42 27.955C40.2769 28.0796 40.1619 28.2332 40.0826 28.4056C40.0033 28.578 39.9615 28.7653 39.96 28.955V51.605C39.9604 51.798 40.0013 51.9888 40.08 52.165C40.1636 52.3353 40.279 52.488 40.42 52.615C40.5695 52.7338 40.7387 52.8252 40.92 52.885C41.1079 52.925 41.3021 52.925 41.49 52.885C44.4961 52.4124 47.2346 50.8817 49.2122 48.5689C51.1897 46.2561 52.2764 43.3131 52.2764 40.27C52.2764 37.227 51.1897 34.284 49.2122 31.9712C47.2346 29.6583 44.4961 28.1277 41.49 27.655V27.685Z" fill="#04162B"/>
<path d="M33.25 55.605C30.1277 54.4433 27.4354 52.3545 25.5343 49.6188C23.6332 46.8831 22.6143 43.6314 22.6143 40.3C22.6143 36.9686 23.6332 33.7169 25.5343 30.9812C27.4354 28.2455 30.1277 26.1567 33.25 24.995V9.88501C26.1513 11.2096 19.7396 14.9755 15.1254 20.5303C10.5113 26.0851 7.98547 33.0788 7.98547 40.3C7.98547 47.5212 10.5113 54.5149 15.1254 60.0697C19.7396 65.6245 26.1513 69.3904 33.25 70.715V55.605Z" fill="#04162B"/>
<path d="M46.36 16.0649V24.9949C49.4823 26.1566 52.1746 28.2454 54.0756 30.9811C55.9767 33.7169 56.9956 36.9686 56.9956 40.2999C56.9956 43.6313 55.9767 46.883 54.0756 49.6187C52.1746 52.3544 49.4823 54.4433 46.36 55.6049V64.5349C51.8202 63.2471 56.6855 60.1531 60.1674 55.7543C63.6493 51.3556 65.5438 45.91 65.5438 40.2999C65.5438 34.6899 63.6493 29.2443 60.1674 24.8455C56.6855 20.4468 51.8202 17.3528 46.36 16.0649Z" fill="#4EA8ED"/>
<path d="M62.46 19.8851L65.69 19.5951C62.469 16.1872 58.5168 13.5545 54.131 11.8951C49.7452 10.2357 45.0402 9.59289 40.37 10.0151C39.82 10.0151 39.29 10.1251 38.76 10.2051C43.1719 10.0378 47.5686 10.8149 51.6559 12.4843C55.7432 14.1537 59.4268 16.6769 62.46 19.8851Z" fill="#04162B"/>
<path d="M62.23 59.885C59.3401 63.2147 55.7732 65.8897 51.7673 67.7314C47.7615 69.5731 43.4089 70.5391 39 70.565C39.53 70.565 40.07 70.655 40.61 70.685C45.2899 70.9022 49.9582 70.0558 54.264 68.2095C58.5698 66.3631 62.4011 63.5649 65.47 60.025L62.23 59.885Z" fill="#04162B"/>
</svg>
