<svg xmlns="http://www.w3.org/2000/svg" viewBox="0 0 157.34 60.83"><defs><style>.cls-1{fill:#fff;}.cls-2{fill:#4ea8ed;}.cls-3{fill:#04162b;}</style></defs><g id="Layer_2" data-name="Layer 2"><g id="Layer_1-2" data-name="Layer 1"><path class="cls-1" d="M75.31,47.75l-2.15-7.88h1l1.64,6.42h.08l1.68-6.42H78.6l1.68,6.42h.08L82,39.87h1l-2.15,7.88h-1l-1.74-6.28H78l-1.74,6.28ZM86,47.87a2.68,2.68,0,0,1-1.47-.38,2.45,2.45,0,0,1-.95-1.06,3.58,3.58,0,0,1-.33-1.59,3.69,3.69,0,0,1,.33-1.6,2.59,2.59,0,0,1,.93-1.08,2.53,2.53,0,0,1,1.4-.4,2.86,2.86,0,0,1,.91.16,2.27,2.27,0,0,1,.82.5,2.39,2.39,0,0,1,.59.91,4,4,0,0,1,.22,1.39v.38H83.85v-.78h3.63a1.83,1.83,0,0,0-.2-.89,1.4,1.4,0,0,0-.56-.62,1.56,1.56,0,0,0-.85-.23,1.65,1.65,0,0,0-.94.27,1.81,1.81,0,0,0-.6.69,2.07,2.07,0,0,0-.21.92V45a2.42,2.42,0,0,0,.23,1.13,1.6,1.6,0,0,0,.65.71,1.87,1.87,0,0,0,1,.24,2.16,2.16,0,0,0,.65-.1,1.51,1.51,0,0,0,.5-.31,1.45,1.45,0,0,0,.33-.52l.88.25a2,2,0,0,1-.47.78,2.28,2.28,0,0,1-.81.53A3.06,3.06,0,0,1,86,47.87Zm4-.12V39.87h.91v2.91h.08q.09-.15.27-.39a1.52,1.52,0,0,1,.52-.43,1.81,1.81,0,0,1,.91-.2,2.35,2.35,0,0,1,1.32.38,2.53,2.53,0,0,1,.89,1.06,3.79,3.79,0,0,1,.32,1.61,3.88,3.88,0,0,1-.32,1.63,2.59,2.59,0,0,1-.89,1.06,2.28,2.28,0,0,1-1.3.37,1.84,1.84,0,0,1-.91-.19,1.69,1.69,0,0,1-.53-.43c-.12-.17-.22-.3-.28-.41h-.11v.91Zm.89-3A3.36,3.36,0,0,0,91,46a1.8,1.8,0,0,0,.57.79,1.49,1.49,0,0,0,.93.29,1.47,1.47,0,0,0,.94-.3,1.89,1.89,0,0,0,.58-.82,3.17,3.17,0,0,0,.2-1.14A3.35,3.35,0,0,0,94,43.67a1.74,1.74,0,0,0-.58-.79,1.48,1.48,0,0,0-1-.3,1.54,1.54,0,0,0-.94.28,1.63,1.63,0,0,0-.56.78A3.13,3.13,0,0,0,90.8,44.8Zm13.19-3a1.22,1.22,0,0,0-.56-.91,2.2,2.2,0,0,0-1.21-.32,2.4,2.4,0,0,0-.92.17,1.42,1.42,0,0,0-.6.47,1.06,1.06,0,0,0-.22.67,1,1,0,0,0,.15.54,1.38,1.38,0,0,0,.39.37,3.33,3.33,0,0,0,.5.25l.48.15.8.21c.21.06.44.13.69.22a3.67,3.67,0,0,1,.73.39,1.93,1.93,0,0,1,.57.63,1.78,1.78,0,0,1,.23.93,2,2,0,0,1-.34,1.15,2.22,2.22,0,0,1-1,.82,4,4,0,0,1-3,0,2.31,2.31,0,0,1-1-.76,2.17,2.17,0,0,1-.4-1.13h1a1.18,1.18,0,0,0,.3.74,1.65,1.65,0,0,0,.67.43,2.74,2.74,0,0,0,.87.14,2.52,2.52,0,0,0,1-.18,1.71,1.71,0,0,0,.69-.5,1.21,1.21,0,0,0,.26-.76.93.93,0,0,0-.22-.63,1.54,1.54,0,0,0-.58-.4,4.66,4.66,0,0,0-.77-.27l-1-.28a3.6,3.6,0,0,1-1.46-.76A1.65,1.65,0,0,1,99.56,42a1.9,1.9,0,0,1,.36-1.15,2.33,2.33,0,0,1,1-.77,3.3,3.3,0,0,1,1.36-.27,3.19,3.19,0,0,1,1.35.27,2.26,2.26,0,0,1,.94.74,1.75,1.75,0,0,1,.37,1.06Zm4.87,6a2.51,2.51,0,0,1-2.34-1.44,3.66,3.66,0,0,1-.33-1.6,3.72,3.72,0,0,1,.33-1.62,2.62,2.62,0,0,1,.94-1.06,2.71,2.71,0,0,1,2.8,0,2.49,2.49,0,0,1,.94,1.06,3.58,3.58,0,0,1,.34,1.62,3.52,3.52,0,0,1-.34,1.6,2.49,2.49,0,0,1-.94,1.06A2.57,2.57,0,0,1,108.86,47.87Zm0-.81a1.54,1.54,0,0,0,1-.32,1.71,1.71,0,0,0,.58-.81,3.31,3.31,0,0,0,0-2.21,1.74,1.74,0,0,0-.58-.82,1.54,1.54,0,0,0-1-.32,1.58,1.58,0,0,0-1,.32,1.89,1.89,0,0,0-.58.82,3.48,3.48,0,0,0,0,2.21,1.86,1.86,0,0,0,.58.81A1.58,1.58,0,0,0,108.86,47.06Zm5-7.19v7.88h-.9V39.87Zm5.39,5.46V41.84h.91v5.91h-.91v-1h-.06a2,2,0,0,1-.65.76,1.85,1.85,0,0,1-1.11.32,2,2,0,0,1-1-.25,1.69,1.69,0,0,1-.68-.74,2.84,2.84,0,0,1-.24-1.25V41.84h.9v3.69a1.44,1.44,0,0,0,.36,1,1.24,1.24,0,0,0,.93.39,1.59,1.59,0,0,0,.69-.17,1.55,1.55,0,0,0,.6-.54A1.58,1.58,0,0,0,119.22,45.33Zm5.14-3.49v.77h-3.07v-.77Zm-2.17-1.41h.9v5.63a1.1,1.1,0,0,0,.12.57.56.56,0,0,0,.29.26,1.21,1.21,0,0,0,.38.06l.25,0,.15,0,.18.82-.25.07a2.3,2.3,0,0,1-.42,0,1.87,1.87,0,0,1-.76-.17,1.52,1.52,0,0,1-.6-.5,1.46,1.46,0,0,1-.24-.86Zm3.53,7.32V41.84h.91v5.91Zm.46-6.89a.67.67,0,0,1-.46-.18.6.6,0,0,1-.18-.44.58.58,0,0,1,.18-.43.67.67,0,0,1,.46-.18.65.65,0,0,1,.46.18.59.59,0,0,1,.19.43.61.61,0,0,1-.19.44A.65.65,0,0,1,126.18,40.86Zm4.51,7a2.6,2.6,0,0,1-1.4-.38,2.55,2.55,0,0,1-.94-1.06,3.66,3.66,0,0,1-.34-1.6,3.72,3.72,0,0,1,.34-1.62,2.55,2.55,0,0,1,.94-1.06,2.71,2.71,0,0,1,2.8,0,2.55,2.55,0,0,1,.94,1.06,3.72,3.72,0,0,1,.34,1.62,3.66,3.66,0,0,1-.34,1.6,2.55,2.55,0,0,1-.94,1.06A2.6,2.6,0,0,1,130.69,47.87Zm0-.81a1.54,1.54,0,0,0,1-.32,1.78,1.78,0,0,0,.58-.81,3.31,3.31,0,0,0,0-2.21,1.81,1.81,0,0,0-.58-.82,1.54,1.54,0,0,0-1-.32,1.56,1.56,0,0,0-1,.32,1.89,1.89,0,0,0-.58.82,3.31,3.31,0,0,0,0,2.21,1.86,1.86,0,0,0,.58.81A1.56,1.56,0,0,0,130.69,47.06Zm5-2.86v3.55h-.91V41.84h.88v.92h.08a1.57,1.57,0,0,1,.63-.72,2,2,0,0,1,1.09-.28,2.2,2.2,0,0,1,1,.25,1.68,1.68,0,0,1,.7.74,2.7,2.7,0,0,1,.25,1.25v3.75h-.91V44.06a1.54,1.54,0,0,0-.36-1.09,1.28,1.28,0,0,0-1-.39,1.55,1.55,0,0,0-.78.19,1.28,1.28,0,0,0-.53.55A1.71,1.71,0,0,0,135.66,44.2Zm9.61-1-.82.24a1.44,1.44,0,0,0-.22-.4,1.07,1.07,0,0,0-.4-.32,1.39,1.39,0,0,0-.65-.13,1.57,1.57,0,0,0-.91.25.74.74,0,0,0-.35.63.65.65,0,0,0,.24.53,2.15,2.15,0,0,0,.77.33l.88.21a2.47,2.47,0,0,1,1.18.59,1.37,1.37,0,0,1,.39,1,1.54,1.54,0,0,1-.29.91,2,2,0,0,1-.81.63,3,3,0,0,1-1.21.23,2.7,2.7,0,0,1-1.5-.39,1.71,1.71,0,0,1-.74-1.15l.86-.21a1.16,1.16,0,0,0,.46.71,1.56,1.56,0,0,0,.91.24,1.67,1.67,0,0,0,1-.27.8.8,0,0,0,.38-.65.67.67,0,0,0-.22-.52,1.36,1.36,0,0,0-.66-.31l-1-.23a2.34,2.34,0,0,1-1.19-.6,1.45,1.45,0,0,1-.38-1,1.42,1.42,0,0,1,.28-.88,2,2,0,0,1,.77-.61,2.83,2.83,0,0,1,1.12-.22,2.17,2.17,0,0,1,1.37.39A2.05,2.05,0,0,1,145.27,43.16Z"/><path class="cls-1" d="M68.12,33.44a7,7,0,0,1-3.55-.92A6.88,6.88,0,0,1,62.09,30a7,7,0,0,1-.9-3.52,6.9,6.9,0,0,1,.9-3.51,6.58,6.58,0,0,1,2.48-2.46A7.3,7.3,0,0,1,71,20.2a6.23,6.23,0,0,1,2.26,1.65l-1.68,1.68a3.78,3.78,0,0,0-1.5-1.09,4.65,4.65,0,0,0-1.93-.39,4.3,4.3,0,0,0-2.24.58,4.05,4.05,0,0,0-1.53,1.57,5.07,5.07,0,0,0,0,4.63A4.19,4.19,0,0,0,68.12,31a5,5,0,0,0,1.93-.36,4.46,4.46,0,0,0,1.53-1.12l1.65,1.68A6.42,6.42,0,0,1,71,32.85,7,7,0,0,1,68.12,33.44Zm13.39,0A6.85,6.85,0,0,1,78,32.52a6.84,6.84,0,0,1-3.41-6A6.67,6.67,0,0,1,75.5,23,7,7,0,0,1,78,20.54a7.14,7.14,0,0,1,7,0A6.52,6.52,0,0,1,87.51,23a6.67,6.67,0,0,1,.92,3.49,6.8,6.8,0,0,1-3.43,6A6.79,6.79,0,0,1,81.51,33.44Zm0-2.43a4.22,4.22,0,0,0,3.77-2.18,4.88,4.88,0,0,0,.56-2.34,4.46,4.46,0,0,0-.59-2.29,4.05,4.05,0,0,0-1.53-1.57,4.14,4.14,0,0,0-2.21-.58,4.3,4.3,0,0,0-2.24.58,4.05,4.05,0,0,0-1.53,1.57,4.65,4.65,0,0,0-.56,2.29,4.88,4.88,0,0,0,.56,2.34A4.19,4.19,0,0,0,81.51,31Zm15.37,2.43a6.23,6.23,0,0,1-3.3-.89,6.83,6.83,0,0,1-2.31-2.49,7.8,7.8,0,0,1,0-7,6.73,6.73,0,0,1,2.31-2.48,6,6,0,0,1,3.3-.92,5.56,5.56,0,0,1,2.68.64A5,5,0,0,1,101.49,22a4.93,4.93,0,0,1,.84,2.54v4a5.11,5.11,0,0,1-2.74,4.3A5.84,5.84,0,0,1,96.88,33.44Zm.42-2.37a4,4,0,0,0,2.18-.59A4.12,4.12,0,0,0,101,28.89a5.11,5.11,0,0,0,.53-2.35,4.83,4.83,0,0,0-.56-2.37,4,4,0,0,0-1.48-1.59A4,4,0,0,0,97.27,22a4.15,4.15,0,0,0-2.21.59,4.19,4.19,0,0,0-1.5,1.62A4.8,4.8,0,0,0,93,26.51a5.06,5.06,0,0,0,.53,2.38,4.25,4.25,0,0,0,1.5,1.59A4.31,4.31,0,0,0,97.3,31.07Zm6.56,2.09h-2.54V29.59l.47-3.24-.47-3.21V13.22h2.54Zm3.69,0V19.9h2.51V33.16Zm1.26-15.92a1.58,1.58,0,0,1-1.15-.44,1.65,1.65,0,0,1-.45-1.18,1.6,1.6,0,0,1,3.19,0A1.65,1.65,0,0,1,110,16.8,1.58,1.58,0,0,1,108.81,17.24Zm6.86,15.92V17.49a4.7,4.7,0,0,1,.55-2.31,4.2,4.2,0,0,1,1.62-1.62,4.56,4.56,0,0,1,2.38-.62,4.12,4.12,0,0,1,1.81.37,5.15,5.15,0,0,1,1.45.94l-1.64,1.65a2.58,2.58,0,0,0-.76-.44,2,2,0,0,0-.86-.17,1.88,1.88,0,0,0-1.51.61,2.3,2.3,0,0,0-.53,1.59V33.16Zm-3.27-11V19.9H125v2.29Zm11.14,11V19.9h2.54V33.16ZM124.8,18.5a1.52,1.52,0,0,1-1.12-.45,1.61,1.61,0,0,1-.45-1.17,1.52,1.52,0,0,1,.45-1.12,1.49,1.49,0,0,1,1.12-.47,1.46,1.46,0,0,1,1.14.47,1.52,1.52,0,0,1,.45,1.12,1.61,1.61,0,0,1-.45,1.17A1.48,1.48,0,0,1,124.8,18.5Zm11.12,14.94a7.28,7.28,0,0,1-3.58-.89,7,7,0,0,1-2.51-2.49,6.88,6.88,0,0,1-.92-3.55A7,7,0,0,1,129.8,23a6.8,6.8,0,0,1,5.95-3.38,6.25,6.25,0,0,1,3.24.83,5.81,5.81,0,0,1,2.21,2.32,6.89,6.89,0,0,1,.81,3.35c0,.19,0,.39,0,.62s-.06.44-.11.72h-11.2V25.37h9.86l-.93.81a4.84,4.84,0,0,0-.47-2.26,3.31,3.31,0,0,0-1.34-1.45,3.89,3.89,0,0,0-2.09-.54,4.52,4.52,0,0,0-2.27.56,3.84,3.84,0,0,0-1.5,1.57,4.94,4.94,0,0,0-.54,2.37,5.25,5.25,0,0,0,.56,2.46,4.13,4.13,0,0,0,1.59,1.62,5,5,0,0,0,2.38.56,5.22,5.22,0,0,0,2-.39,4.4,4.4,0,0,0,1.62-1.18l1.62,1.65a6.27,6.27,0,0,1-2.35,1.7A7.37,7.37,0,0,1,135.92,33.44Zm14.44,0a6.23,6.23,0,0,1-3.3-.89,6.83,6.83,0,0,1-2.31-2.49,7.8,7.8,0,0,1,0-7,6.73,6.73,0,0,1,2.31-2.48,6,6,0,0,1,3.3-.92,5.56,5.56,0,0,1,2.68.64A5,5,0,0,1,155,22a4.93,4.93,0,0,1,.84,2.54v4a5.11,5.11,0,0,1-2.74,4.3A5.84,5.84,0,0,1,150.36,33.44Zm.42-2.37a4,4,0,0,0,2.18-.59,4.12,4.12,0,0,0,1.48-1.59,5.11,5.11,0,0,0,.53-2.35,4.83,4.83,0,0,0-.56-2.37,4,4,0,0,0-1.48-1.59,4,4,0,0,0-2.18-.59,4.15,4.15,0,0,0-2.21.59A4.19,4.19,0,0,0,147,24.2a4.8,4.8,0,0,0-.53,2.31,5.06,5.06,0,0,0,.53,2.38,4.25,4.25,0,0,0,1.5,1.59A4.31,4.31,0,0,0,150.78,31.07Zm6.56,2.09H154.8V29.59l.47-3.24-.47-3.21V13.22h2.54Z"/><path class="cls-2" d="M28.46,17.13a3,3,0,0,0-1.65.48,3.09,3.09,0,0,0-1.13,1.3l-.29,0A3.07,3.07,0,0,0,22.31,22v.18a2.2,2.2,0,0,0-.87.7,2.14,2.14,0,0,0-.42,1h0a3.08,3.08,0,0,0-2.2,2.95,3.09,3.09,0,0,0,.46,1.62A3.48,3.48,0,0,0,18.36,31a3.53,3.53,0,0,0,1.14,2.43A3.42,3.42,0,0,0,19.24,35a3.49,3.49,0,0,0,.46,1.54,3.52,3.52,0,0,0,2.61,1.73h0v0h.16a2.64,2.64,0,0,0,2,1.72v0a3.52,3.52,0,1,0,7,0V20.21a3.07,3.07,0,0,0-3.08-3.08ZM22.31,33v0S22.31,33,22.31,33Z"/><path class="cls-2" d="M34.62,28.57H32.86v-.88h1.76a.44.44,0,0,0,.44-.44V24.17h.88v3.08A1.33,1.33,0,0,1,34.62,28.57Zm.88-5.28A1.32,1.32,0,1,1,36.81,22,1.32,1.32,0,0,1,35.5,23.29Zm0-1.76a.44.44,0,1,0,0,.88.44.44,0,1,0,0-.88Zm.44,15h-.88V33.41a.44.44,0,0,0-.44-.44H32.86v-.88h1.76a1.33,1.33,0,0,1,1.32,1.32ZM35.5,40a1.32,1.32,0,1,1,1.31-1.32A1.33,1.33,0,0,1,35.5,40Zm0-1.76a.43.43,0,0,0-.44.44.44.44,0,0,0,.44.44.44.44,0,0,0,.44-.44A.44.44,0,0,0,35.5,38.26Zm1.75-7.49H32.86v-.88h4.39a1.32,1.32,0,0,0,1.32-1.32V27.25h.88v1.32A2.19,2.19,0,0,1,37.25,30.77ZM39,26.37a1.32,1.32,0,1,1,1.32-1.32A1.33,1.33,0,0,1,39,26.37Zm0-1.76a.44.44,0,1,0,.44.44A.44.44,0,0,0,39,24.61Zm-.44,7.48h.88V36.5h-.88Zm2.2-6.16h.88v7h-.88Zm0,7.92h.88v.88h-.88Z"/><path class="cls-3" d="M28.46,19.77h.88v.88h-.88Zm-2.2,10.12h.88v.88h-.88Zm2.64,9.69h.88v.88H28.9ZM21.43,33h.88v.88h-.88Zm7.91-6.16h.88v.88h-.88ZM21,27.69h.88v.88H21Z"/><path d="M28.46,17.13a3,3,0,0,0-1.65.48,3.09,3.09,0,0,0-1.13,1.3l-.29,0A3.07,3.07,0,0,0,22.31,22v.18a2.2,2.2,0,0,0-.87.7,2.14,2.14,0,0,0-.42,1h0a3.08,3.08,0,0,0-2.2,2.95,3.09,3.09,0,0,0,.46,1.62A3.48,3.48,0,0,0,18.36,31a3.53,3.53,0,0,0,1.14,2.43A3.42,3.42,0,0,0,19.24,35a3.49,3.49,0,0,0,.46,1.54,3.52,3.52,0,0,0,2.61,1.73h0v0h.16a2.64,2.64,0,0,0,2,1.72v0a3.52,3.52,0,1,0,7,0V20.21a3.07,3.07,0,0,0-3.08-3.08ZM22.31,33v0S22.31,33,22.31,33Z"/><path class="cls-2" d="M34.62,28.57H32.86v-.88h1.76a.44.44,0,0,0,.44-.44V24.17h.88v3.08A1.33,1.33,0,0,1,34.62,28.57Zm.88-5.28A1.32,1.32,0,1,1,36.81,22,1.32,1.32,0,0,1,35.5,23.29Zm0-1.76a.44.44,0,1,0,0,.88.44.44,0,1,0,0-.88Zm.44,15h-.88V33.41a.44.44,0,0,0-.44-.44H32.86v-.88h1.76a1.33,1.33,0,0,1,1.32,1.32ZM35.5,40a1.32,1.32,0,1,1,1.31-1.32A1.33,1.33,0,0,1,35.5,40Zm0-1.76a.43.43,0,0,0-.44.44.44.44,0,0,0,.44.44.44.44,0,0,0,.44-.44A.44.44,0,0,0,35.5,38.26Zm1.75-7.49H32.86v-.88h4.39a1.32,1.32,0,0,0,1.32-1.32V27.25h.88v1.32A2.19,2.19,0,0,1,37.25,30.77ZM39,26.37a1.32,1.32,0,1,1,1.32-1.32A1.33,1.33,0,0,1,39,26.37Zm0-1.76a.44.44,0,1,0,.44.44A.44.44,0,0,0,39,24.61Zm-.44,7.48h.88V36.5h-.88Zm2.2-6.16h.88v7h-.88Zm0,7.92h.88v.88h-.88Z"/><path class="cls-2" d="M28.46,19.77h.88v.88h-.88Zm-2.2,10.12h.88v.88h-.88Zm2.64,9.69h.88v.88H28.9ZM21.43,33h.88v.88h-.88Zm7.91-6.16h.88v.88h-.88ZM21,27.69h.88v.88H21Z"/><path class="cls-1" d="M28.44,16.77a3.5,3.5,0,0,1,2.83,1.44,2.34,2.34,0,0,1,.58-.78,2.22,2.22,0,0,1,.83-.44,2.14,2.14,0,0,1,.94-.06,13.65,13.65,0,0,1,0,27,2.19,2.19,0,0,1-2.42-1.47,4,4,0,0,1-7.14-2,3,3,0,0,1-1.15-.62,3.27,3.27,0,0,1-.79-1.06,4,4,0,0,1-2.39-1.34,4,4,0,0,1-1-2.57A3.77,3.77,0,0,1,19,33.57a3.94,3.94,0,0,1-.28-5.11,3.5,3.5,0,0,1,1.91-4.85,2.71,2.71,0,0,1,.46-.95,2.5,2.5,0,0,1,.79-.69,3.51,3.51,0,0,1,3.51-3.44h0A3.51,3.51,0,0,1,28.44,16.77Zm0,.88a2.64,2.64,0,0,0,0,5.28v.88A3.51,3.51,0,0,1,25,19.43a2.63,2.63,0,0,0-1.51.73,2.66,2.66,0,0,0-.77,1.48,2.83,2.83,0,0,1,.41,0,2.64,2.64,0,0,1,2.64,2.64h-.88A1.76,1.76,0,1,0,23.17,26v.88a2.63,2.63,0,0,1-2.61-2.29,2.62,2.62,0,0,0-.95,3.68l.17.28-.22.24a3.06,3.06,0,0,0-.17,3.9,4,4,0,0,1,3.34-1.85v.89a3.07,3.07,0,0,0-2.46,4.92,3,3,0,0,0,1.6,1.11c0-.1,0-.21,0-.31a3.08,3.08,0,0,1,3.08-3.08v.88a2.2,2.2,0,0,0-2.2,2.2,2.25,2.25,0,0,0,.37,1.23,2.18,2.18,0,0,0,1,.8A4,4,0,0,1,28,36.14V37a3.08,3.08,0,1,0,3.08,3.08V20.29A2.64,2.64,0,0,0,28.44,17.65Zm5.05.15a1.37,1.37,0,0,0-.57,0,1.62,1.62,0,0,0-.5.27,1.34,1.34,0,0,0-.46,1V41.72a1.38,1.38,0,0,0,.12.56,1.49,1.49,0,0,0,.34.45,1.62,1.62,0,0,0,.5.27,1.37,1.37,0,0,0,.57,0,12.77,12.77,0,0,0,0-25.23Z"/><path class="cls-2" d="M25.25,45.72a16.33,16.33,0,0,1,0-30.61V0a30.94,30.94,0,0,0,0,60.83Z"/><path class="cls-1" d="M38.36,6.18v8.93a16.33,16.33,0,0,1,0,30.61v8.93a24.9,24.9,0,0,0,0-48.47Z"/><path class="cls-2" d="M54.46,10l3.23-.29A31,31,0,0,0,32.37.13c-.55,0-1.08.11-1.61.19A31,31,0,0,1,54.46,10Z"/><path class="cls-2" d="M54.23,50A31,31,0,0,1,31,60.68c.53,0,1.07.09,1.61.12A31,31,0,0,0,57.47,50.14Z"/></g></g></svg>