<svg width="158" height="61" viewBox="0 0 158 61" fill="none" xmlns="http://www.w3.org/2000/svg">
<path d="M75.3099 47.75L73.1599 39.87H74.1599L75.7999 46.29H75.8799L77.5599 39.87H78.5999L80.2799 46.29H80.3599L81.9999 39.87H82.9999L80.8499 47.75H79.8499L78.1099 41.47H77.9999L76.2599 47.75H75.3099ZM85.9999 47.87C85.4835 47.8877 84.973 47.7557 84.5299 47.49C84.1153 47.2385 83.7847 46.8695 83.5799 46.43C83.3496 45.9323 83.2367 45.3883 83.2499 44.84C83.239 44.2887 83.3517 43.742 83.5799 43.24C83.7828 42.8001 84.105 42.4259 84.5099 42.16C84.9273 41.8923 85.4141 41.7532 85.9099 41.76C86.2199 41.7636 86.5273 41.8177 86.8199 41.92C87.1258 42.0263 87.4054 42.1967 87.6399 42.42C87.9037 42.6741 88.1056 42.9854 88.2299 43.33C88.3848 43.7767 88.4593 44.2473 88.4499 44.72V45.1H83.8499V44.32H87.4799C87.4894 44.0112 87.4206 43.705 87.2799 43.43C87.1607 43.1711 86.9653 42.9548 86.7199 42.81C86.4645 42.6533 86.1695 42.5734 85.8699 42.58C85.5365 42.5729 85.2088 42.6671 84.9299 42.85C84.6742 43.0248 84.4676 43.2624 84.3299 43.54C84.19 43.8264 84.1181 44.1412 84.1199 44.46V45C84.1044 45.3897 84.1833 45.7774 84.3499 46.13C84.4886 46.4278 84.7155 46.6756 84.9999 46.84C85.3043 47.0119 85.6507 47.095 85.9999 47.08C86.2204 47.08 86.4396 47.0463 86.6499 46.98C86.8353 46.9104 87.0052 46.8051 87.1499 46.67C87.2959 46.5223 87.4084 46.3449 87.4799 46.15L88.3599 46.4C88.2653 46.6927 88.1045 46.9596 87.8899 47.18C87.661 47.4126 87.3847 47.5933 87.0799 47.71C86.7324 47.8276 86.3666 47.8818 85.9999 47.87ZM89.9999 47.75V39.87H90.9099V42.78H90.9899C91.0499 42.68 91.1399 42.55 91.2599 42.39C91.3988 42.2095 91.5765 42.0625 91.7799 41.96C92.0606 41.815 92.3743 41.7461 92.6899 41.76C93.1579 41.7524 93.6176 41.8847 94.0099 42.14C94.3993 42.4037 94.7075 42.7708 94.8999 43.2C95.1229 43.7068 95.2321 44.2564 95.2199 44.81C95.2322 45.37 95.123 45.9261 94.8999 46.44C94.7049 46.8675 94.3972 47.2339 94.0099 47.5C93.6239 47.7519 93.1707 47.8809 92.7099 47.87C92.3953 47.8856 92.082 47.8202 91.7999 47.68C91.5958 47.5742 91.4155 47.4279 91.2699 47.25C91.1499 47.08 91.0499 46.95 90.9899 46.84H90.8799V47.75H89.9999ZM90.8899 44.75C90.8478 45.1699 90.8851 45.5939 90.9999 46C91.1137 46.3107 91.3109 46.584 91.5699 46.79C91.8387 46.9881 92.1662 47.0902 92.4999 47.08C92.8384 47.0913 93.1705 46.9853 93.4399 46.78C93.7037 46.564 93.9041 46.2806 94.0199 45.96C94.156 45.5955 94.2238 45.209 94.2199 44.82C94.2147 44.4267 94.1402 44.0374 93.9999 43.67C93.8863 43.3565 93.6849 43.0823 93.4199 42.88C93.1341 42.6618 92.7786 42.5552 92.4199 42.58C92.0844 42.5684 91.7544 42.6667 91.4799 42.86C91.2192 43.0579 91.024 43.3296 90.9199 43.64C90.8076 44.0157 90.7669 44.4092 90.7999 44.8L90.8899 44.75ZM104.08 41.75C104.062 41.5658 104.002 41.3881 103.905 41.2304C103.808 41.0727 103.676 40.9392 103.52 40.84C103.156 40.6184 102.736 40.5072 102.31 40.52C101.995 40.5157 101.682 40.5735 101.39 40.69C101.151 40.789 100.943 40.9516 100.79 41.16C100.642 41.3517 100.565 41.5881 100.57 41.83C100.567 42.0206 100.619 42.208 100.72 42.37C100.824 42.5177 100.957 42.6434 101.11 42.74C101.269 42.8372 101.437 42.9208 101.61 42.99L102.09 43.14L102.89 43.35C103.1 43.41 103.33 43.48 103.58 43.57C103.837 43.672 104.082 43.8029 104.31 43.96C104.544 44.125 104.739 44.3402 104.88 44.59C105.04 44.8731 105.12 45.1948 105.11 45.52C105.117 45.9291 104.998 46.3304 104.77 46.67C104.525 47.0365 104.177 47.3219 103.77 47.49C102.808 47.8792 101.732 47.8792 100.77 47.49C100.373 47.3339 100.027 47.0708 99.7699 46.73C99.5331 46.3983 99.3945 46.0067 99.3699 45.6H100.37C100.381 45.874 100.487 46.1357 100.67 46.34C100.855 46.5359 101.085 46.6835 101.34 46.77C101.62 46.8633 101.914 46.9106 102.21 46.91C102.552 46.9185 102.892 46.8573 103.21 46.73C103.478 46.6242 103.716 46.4522 103.9 46.23C104.071 46.0136 104.162 45.7455 104.16 45.47C104.167 45.24 104.089 45.0155 103.94 44.84C103.78 44.6636 103.582 44.5267 103.36 44.44C103.112 44.3276 102.854 44.2373 102.59 44.17L101.59 43.89C101.051 43.7528 100.551 43.4927 100.13 43.13C99.9652 42.9884 99.8301 42.8157 99.7323 42.6218C99.6344 42.4279 99.5759 42.2166 99.5599 42C99.5519 41.5877 99.6783 41.1841 99.9199 40.85C100.176 40.5062 100.522 40.2398 100.92 40.08C101.349 39.8947 101.813 39.8027 102.28 39.81C102.744 39.8006 103.205 39.8928 103.63 40.08C104.004 40.2377 104.329 40.4934 104.57 40.82C104.806 41.1231 104.936 41.4956 104.94 41.88L104.08 41.75ZM108.95 47.75C108.462 47.7634 107.981 47.6343 107.565 47.3786C107.15 47.1228 106.818 46.7515 106.61 46.31C106.381 45.8083 106.268 45.2614 106.28 44.71C106.267 44.1521 106.38 43.5984 106.61 43.09C106.82 42.657 107.145 42.2903 107.55 42.03C107.972 41.7751 108.456 41.6403 108.95 41.6403C109.443 41.6403 109.927 41.7751 110.35 42.03C110.759 42.2848 111.086 42.6531 111.29 43.09C111.528 43.596 111.645 44.1508 111.63 44.71C111.644 45.2626 111.527 45.8107 111.29 46.31C111.086 46.7469 110.759 47.1151 110.35 47.37C109.918 47.6881 109.397 47.863 108.86 47.87L108.95 47.75ZM108.95 46.94C109.31 46.9537 109.664 46.8405 109.95 46.62C110.219 46.4135 110.421 46.1316 110.53 45.81C110.783 45.0951 110.783 44.3149 110.53 43.6C110.421 43.2756 110.22 42.9904 109.95 42.78C109.664 42.5595 109.31 42.4462 108.95 42.46C108.59 42.4495 108.237 42.5624 107.95 42.78C107.686 42.996 107.486 43.2793 107.37 43.6C107.13 44.3171 107.13 45.0929 107.37 45.81C107.486 46.1277 107.687 46.4077 107.95 46.62C108.197 46.8623 108.517 47.0169 108.86 47.06L108.95 46.94ZM113.95 39.75V47.63H113.05V39.87L113.95 39.75ZM119.34 45.21V41.84H120.25V47.75H119.34V46.75H119.28C119.131 47.0543 118.907 47.3158 118.63 47.51C118.304 47.7324 117.915 47.8445 117.52 47.83C117.17 47.8355 116.826 47.7493 116.52 47.58C116.223 47.408 115.986 47.1499 115.84 46.84C115.666 46.4468 115.584 46.0194 115.6 45.59V41.84H116.5V45.53C116.488 45.897 116.617 46.2547 116.86 46.53C116.979 46.6565 117.123 46.7566 117.283 46.8238C117.444 46.891 117.616 46.9237 117.79 46.92C118.03 46.9161 118.266 46.858 118.48 46.75C118.724 46.6261 118.931 46.4398 119.08 46.21C119.21 45.9362 119.259 45.6307 119.22 45.33L119.34 45.21ZM124.48 41.72V42.49H121.41V41.72H124.48ZM122.31 40.31H123.21V45.94C123.198 46.1373 123.239 46.3342 123.33 46.51C123.392 46.6286 123.495 46.7208 123.62 46.77C123.743 46.8101 123.871 46.8304 124 46.83H124.25H124.4L124.58 47.65L124.33 47.72C124.19 47.7328 124.05 47.7328 123.91 47.72C123.647 47.7173 123.389 47.6594 123.15 47.55C122.91 47.4384 122.703 47.2661 122.55 47.05C122.382 46.7954 122.298 46.4947 122.31 46.19V40.31ZM125.84 47.63V41.84H126.75V47.75L125.84 47.63ZM126.3 40.74C126.129 40.7408 125.965 40.6764 125.84 40.56C125.782 40.5028 125.735 40.4342 125.704 40.3586C125.674 40.2829 125.658 40.2017 125.66 40.12C125.659 40.0398 125.674 39.9601 125.705 39.8861C125.736 39.8121 125.782 39.7453 125.84 39.69C125.965 39.5736 126.129 39.5092 126.3 39.51C126.471 39.5071 126.636 39.5718 126.76 39.69C126.819 39.7448 126.867 39.8113 126.9 39.8852C126.932 39.9592 126.949 40.0391 126.95 40.12C126.95 40.2023 126.933 40.2838 126.9 40.3594C126.867 40.435 126.82 40.5033 126.76 40.56C126.698 40.6567 126.612 40.7354 126.51 40.7881C126.408 40.8408 126.294 40.8656 126.18 40.86L126.3 40.74ZM130.81 47.74C130.317 47.7487 129.831 47.6169 129.41 47.36C129.003 47.1025 128.677 46.735 128.47 46.3C128.237 45.7991 128.121 45.2521 128.13 44.7C128.12 44.1413 128.236 43.5876 128.47 43.08C128.677 42.645 129.003 42.2774 129.41 42.02C129.832 41.7651 130.316 41.6303 130.81 41.6303C131.303 41.6303 131.787 41.7651 132.21 42.02C132.617 42.2774 132.943 42.645 133.15 43.08C133.383 43.5876 133.5 44.1413 133.49 44.7C133.499 45.2521 133.382 45.7991 133.15 46.3C132.943 46.735 132.617 47.1025 132.21 47.36C131.77 47.6859 131.238 47.8643 130.69 47.87L130.81 47.74ZM130.81 46.93C131.17 46.9437 131.524 46.8305 131.81 46.61C132.076 46.4007 132.278 46.1197 132.39 45.8C132.643 45.0851 132.643 44.3049 132.39 43.59C132.278 43.2674 132.077 42.9831 131.81 42.77C131.524 42.5495 131.17 42.4362 130.81 42.45C130.45 42.4379 130.096 42.551 129.81 42.77C129.546 42.986 129.346 43.2693 129.23 43.59C128.977 44.3049 128.977 45.0851 129.23 45.8C129.346 46.1177 129.547 46.3977 129.81 46.61C130.047 46.8514 130.356 47.0093 130.69 47.06L130.81 46.93ZM135.81 44.07V47.62H134.9V41.84H135.78V42.76H135.86C135.99 42.4603 136.21 42.2086 136.49 42.04C136.819 41.8442 137.197 41.7471 137.58 41.76C137.928 41.7629 138.271 41.8486 138.58 42.01C138.884 42.1783 139.129 42.4368 139.28 42.75C139.462 43.1407 139.548 43.5693 139.53 44V47.75H138.62V44.06C138.645 43.6638 138.516 43.2733 138.26 42.97C138.131 42.8365 137.975 42.7324 137.803 42.6651C137.63 42.5978 137.445 42.5687 137.26 42.58C136.988 42.5737 136.719 42.6392 136.48 42.77C136.251 42.8951 136.066 43.087 135.95 43.32C135.774 43.581 135.674 43.8855 135.66 44.2L135.81 44.07ZM145.42 43.07L144.6 43.31C144.548 43.1658 144.474 43.0308 144.38 42.91C144.274 42.7725 144.137 42.6627 143.98 42.59C143.777 42.4949 143.554 42.4503 143.33 42.46C143.008 42.448 142.69 42.5353 142.42 42.71C142.313 42.7765 142.224 42.8692 142.163 42.9795C142.102 43.0898 142.07 43.2138 142.07 43.34C142.066 43.4409 142.086 43.5413 142.127 43.6333C142.169 43.7253 142.231 43.8064 142.31 43.87C142.542 44.0294 142.804 44.1415 143.08 44.2L143.96 44.41C144.399 44.496 144.807 44.7 145.14 45C145.269 45.1318 145.37 45.2884 145.437 45.4602C145.504 45.632 145.536 45.8156 145.53 46C145.532 46.3264 145.431 46.645 145.24 46.91C145.029 47.1869 144.75 47.404 144.43 47.54C144.047 47.6995 143.635 47.7778 143.22 47.77C142.693 47.7894 142.171 47.6538 141.72 47.38C141.524 47.2495 141.357 47.0801 141.23 46.8822C141.103 46.6843 141.017 46.4623 140.98 46.23L141.84 46.02C141.898 46.3061 142.063 46.5597 142.3 46.73C142.571 46.9018 142.889 46.9856 143.21 46.97C143.563 46.9882 143.914 46.8937 144.21 46.7C144.322 46.6311 144.415 46.5358 144.481 46.4225C144.547 46.3091 144.585 46.1812 144.59 46.05C144.593 45.9525 144.575 45.8555 144.537 45.7657C144.499 45.6759 144.442 45.5954 144.37 45.53C144.182 45.3685 143.954 45.2613 143.71 45.22L142.71 44.99C142.263 44.9096 141.85 44.7011 141.52 44.39C141.27 44.1173 141.134 43.7596 141.14 43.39C141.133 43.0736 141.231 42.7639 141.42 42.51C141.622 42.2458 141.887 42.0361 142.19 41.9C142.544 41.7513 142.926 41.6765 143.31 41.68C143.797 41.6521 144.28 41.7895 144.68 42.07C144.984 42.3637 145.19 42.7445 145.27 43.16L145.42 43.07Z" fill="white"/>
<path d="M68.12 33.44C66.8759 33.4543 65.6505 33.1367 64.57 32.52C63.5379 31.9104 62.683 31.0417 62.09 30C61.4854 28.9263 61.1749 27.7121 61.19 26.48C61.1719 25.2507 61.4826 24.0389 62.09 22.97C62.6799 21.9416 63.5368 21.0916 64.57 20.51C65.5467 19.9703 66.6343 19.6617 67.7489 19.608C68.8636 19.5542 69.9758 19.7568 71 20.2C71.8687 20.5715 72.6415 21.1358 73.26 21.85L71.58 23.53C71.1782 23.0478 70.6627 22.6732 70.08 22.44C69.4718 22.1737 68.8138 22.0408 68.15 22.05C67.3643 22.0351 66.5896 22.2356 65.91 22.63C65.2653 23.0027 64.7359 23.546 64.38 24.2C64.0123 24.9163 63.8206 25.7099 63.8206 26.515C63.8206 27.3202 64.0123 28.1137 64.38 28.83C64.7472 29.4976 65.2894 30.0524 65.9484 30.4347C66.6074 30.8171 67.3582 31.0125 68.12 31C68.7808 31.0087 69.4367 30.8864 70.05 30.64C70.6343 30.3807 71.1561 29.9987 71.58 29.52L73.23 31.2C72.6158 31.906 71.8547 32.4691 71 32.85C70.0925 33.2483 69.1109 33.4494 68.12 33.44ZM81.51 33.44C80.2785 33.4544 79.066 33.1366 78 32.52C76.9507 31.912 76.082 31.0359 75.4828 29.9816C74.8836 28.9273 74.5754 27.7326 74.59 26.52C74.5615 25.2851 74.8765 24.0664 75.5 23C76.111 21.9811 76.9714 21.1346 78 20.54C79.0686 19.939 80.2739 19.6233 81.5 19.6233C82.726 19.6233 83.9313 19.939 85 20.54C86.046 21.1148 86.9142 21.9657 87.51 23C88.1315 24.0567 88.4498 25.2642 88.43 26.49C88.4467 27.7054 88.1373 28.903 87.534 29.9583C86.9308 31.0135 86.0557 31.8878 85 32.49C83.9439 33.1164 82.7378 33.4447 81.51 33.44ZM81.51 31.01C82.2772 31.0237 83.0336 30.828 83.6979 30.4439C84.3622 30.0598 84.9091 29.5018 85.28 28.83C85.659 28.109 85.8515 27.3045 85.84 26.49C85.8529 25.6875 85.6491 24.8964 85.25 24.2C84.894 23.546 84.3646 23.0027 83.72 22.63C83.0523 22.2332 82.2864 22.0322 81.51 22.05C80.7243 22.0351 79.9496 22.2356 79.27 22.63C78.6253 23.0027 78.0959 23.546 77.74 24.2C77.3597 24.9026 77.1668 25.6913 77.18 26.49C77.1684 27.3045 77.3609 28.109 77.74 28.83C78.1095 29.5021 78.6565 30.0599 79.3213 30.4426C79.9861 30.8252 80.7431 31.018 81.51 31V31.01ZM96.88 33.44C95.7185 33.4568 94.5755 33.1485 93.58 32.55C92.6126 31.9278 91.818 31.0713 91.27 30.06C90.7246 28.9739 90.4406 27.7754 90.4406 26.56C90.4406 25.3447 90.7246 24.1461 91.27 23.06C91.8158 22.0498 92.611 21.1961 93.58 20.58C94.5672 19.9592 95.7139 19.6395 96.88 19.66C97.8128 19.6451 98.7345 19.8652 99.56 20.3C100.341 20.6887 101.006 21.2748 101.49 22C101.999 22.7531 102.289 23.6321 102.33 24.54V28.54C102.29 29.4339 102.015 30.3016 101.535 31.0562C101.054 31.8108 100.383 32.4259 99.59 32.84C98.748 33.2549 97.8184 33.4607 96.88 33.44ZM97.3 31.07C98.0682 31.0868 98.825 30.882 99.48 30.48C100.121 30.0976 100.647 29.548 101 28.89C101.361 28.1601 101.543 27.3544 101.53 26.54C101.549 25.7152 101.356 24.8992 100.97 24.17C100.633 23.5136 100.121 22.9634 99.49 22.58C98.8225 22.174 98.0507 21.9724 97.27 22C96.4926 21.9858 95.7268 22.1902 95.06 22.59C94.4241 22.9862 93.9061 23.5456 93.56 24.21C93.1842 24.9179 92.9917 25.7086 93 26.51C92.98 27.3347 93.1619 28.1517 93.53 28.89C93.8828 29.5417 94.3999 30.0899 95.03 30.48C95.7175 30.8827 96.5033 31.087 97.3 31.07ZM103.86 33.16H101.32V29.59L101.79 26.35L101.32 23.14V13.22H103.86V33.16ZM107.55 33.16V19.9H110.06V33.16H107.55ZM108.81 17.24C108.599 17.2474 108.388 17.2122 108.19 17.1367C107.993 17.0611 107.812 16.9466 107.66 16.8C107.511 16.6425 107.395 16.4572 107.318 16.2548C107.24 16.0523 107.204 15.8366 107.21 15.62C107.242 15.2188 107.424 14.8443 107.719 14.5712C108.015 14.2981 108.402 14.1464 108.805 14.1464C109.207 14.1464 109.595 14.2981 109.891 14.5712C110.186 14.8443 110.368 15.2188 110.4 15.62C110.426 16.0505 110.282 16.4741 110 16.8C109.843 16.9516 109.656 17.069 109.451 17.1447C109.246 17.2204 109.028 17.2529 108.81 17.24ZM115.67 33.16V17.49C115.653 16.6856 115.842 15.8902 116.22 15.18C116.599 14.5003 117.16 13.9395 117.84 13.56C118.562 13.1393 119.385 12.9248 120.22 12.94C120.844 12.9247 121.462 13.0513 122.03 13.31C122.563 13.5394 123.053 13.8573 123.48 14.25L121.84 15.9C121.614 15.711 121.357 15.5622 121.08 15.46C120.809 15.3404 120.516 15.2824 120.22 15.29C119.939 15.272 119.657 15.3174 119.395 15.423C119.134 15.5286 118.9 15.6916 118.71 15.9C118.34 16.3445 118.15 16.9122 118.18 17.49V33.16H115.67ZM112.4 22.16V19.9H125V22.19L112.4 22.16ZM123.54 33.16V19.9H126.08V33.16H123.54ZM124.8 18.5C124.592 18.5055 124.386 18.4683 124.193 18.391C124.001 18.3136 123.826 18.1975 123.68 18.05C123.531 17.895 123.414 17.7116 123.336 17.5106C123.259 17.3096 123.223 17.0952 123.23 16.88C123.225 16.6725 123.262 16.4661 123.339 16.2734C123.416 16.0808 123.532 15.9061 123.68 15.76C123.823 15.6074 123.997 15.4867 124.19 15.4057C124.383 15.3247 124.591 15.2853 124.8 15.29C125.013 15.2805 125.225 15.3176 125.422 15.3988C125.619 15.48 125.796 15.6033 125.94 15.76C126.087 15.9061 126.203 16.0808 126.281 16.2734C126.358 16.4661 126.395 16.6725 126.39 16.88C126.397 17.0952 126.361 17.3096 126.284 17.5106C126.206 17.7116 126.089 17.895 125.94 18.05C125.793 18.2021 125.615 18.3209 125.419 18.3986C125.222 18.4762 125.011 18.5108 124.8 18.5ZM135.92 33.44C134.67 33.4556 133.437 33.1491 132.34 32.55C131.304 31.9485 130.44 31.0911 129.83 30.06C129.208 28.9817 128.89 27.7548 128.91 26.51C128.894 25.2822 129.201 24.0717 129.8 23C130.404 21.961 131.274 21.1008 132.319 20.507C133.364 19.9133 134.548 19.6072 135.75 19.62C136.885 19.5972 138.005 19.8841 138.99 20.45C139.93 21.0009 140.695 21.8048 141.2 22.77C141.749 23.8 142.028 24.9528 142.01 26.12C142.01 26.31 142.01 26.51 142.01 26.74C142.01 26.97 141.95 27.18 141.9 27.46H130.7V25.37H140.56L139.63 26.18C139.658 25.3998 139.497 24.6244 139.16 23.92C138.871 23.3116 138.404 22.8058 137.82 22.47C137.188 22.0965 136.464 21.9092 135.73 21.93C134.937 21.9144 134.154 22.1075 133.46 22.49C132.819 22.8581 132.299 23.4033 131.96 24.06C131.585 24.7927 131.4 25.6074 131.42 26.43C131.404 27.2833 131.596 28.1277 131.98 28.89C132.348 29.5679 132.899 30.1291 133.57 30.51C134.305 30.8908 135.122 31.0832 135.95 31.07C136.636 31.0727 137.315 30.9401 137.95 30.68C138.574 30.4165 139.128 30.0127 139.57 29.5L141.19 31.15C140.55 31.8926 139.745 32.4748 138.84 32.85C137.917 33.2434 136.923 33.4442 135.92 33.44ZM150.36 33.44C149.198 33.4568 148.055 33.1485 147.06 32.55C146.093 31.9278 145.298 31.0713 144.75 30.06C144.205 28.9739 143.921 27.7754 143.921 26.56C143.921 25.3447 144.205 24.1461 144.75 23.06C145.296 22.0498 146.091 21.1961 147.06 20.58C148.047 19.9592 149.194 19.6395 150.36 19.66C151.293 19.6451 152.214 19.8652 153.04 20.3C153.831 20.6843 154.508 21.2708 155 22C155.509 22.7531 155.799 23.6321 155.84 24.54V28.54C155.8 29.4339 155.525 30.3016 155.045 31.0562C154.564 31.8108 153.893 32.4259 153.1 32.84C152.249 33.2596 151.308 33.4656 150.36 33.44ZM150.78 31.07C151.548 31.0868 152.305 30.882 152.96 30.48C153.587 30.092 154.098 29.5429 154.44 28.89C154.801 28.1601 154.983 27.3544 154.97 26.54C154.989 25.7152 154.796 24.8992 154.41 24.17C154.073 23.5136 153.56 22.9634 152.93 22.58C152.275 22.178 151.518 21.9732 150.75 21.99C149.973 21.9758 149.207 22.1802 148.54 22.58C147.889 22.9706 147.357 23.5305 147 24.2C146.633 24.9136 146.451 25.7078 146.47 26.51C146.45 27.3347 146.632 28.1517 147 28.89C147.353 29.5417 147.87 30.0899 148.5 30.48C149.19 30.8845 149.98 31.0888 150.78 31.07ZM157.34 33.16H154.8V29.59L155.27 26.35L154.8 23.14V13.22H157.34V33.16Z" fill="white"/>
<path d="M34.62 28.57H32.86V27.69H34.62C34.7367 27.69 34.8486 27.6436 34.9311 27.5611C35.0136 27.4786 35.06 27.3667 35.06 27.25V24.17H35.94V27.25C35.9374 27.5993 35.7975 27.9335 35.5505 28.1805C35.3035 28.4275 34.9693 28.5674 34.62 28.57ZM35.5 23.29C35.2372 23.2919 34.9799 23.2154 34.7609 23.0702C34.5419 22.925 34.3712 22.7177 34.2707 22.4749C34.1702 22.2322 34.1444 21.9649 34.1967 21.7074C34.249 21.4499 34.3769 21.2139 34.5642 21.0295C34.7514 20.8451 34.9894 20.7208 35.2476 20.6725C35.5059 20.6242 35.7727 20.6541 36.0139 20.7583C36.2551 20.8626 36.4597 21.0364 36.6016 21.2576C36.7434 21.4788 36.816 21.7373 36.81 22C36.8022 22.3431 36.6611 22.6697 36.4165 22.9106C36.1719 23.1514 35.8432 23.2875 35.5 23.29ZM35.5 21.53C35.3833 21.53 35.2714 21.5763 35.1889 21.6589C35.1063 21.7414 35.06 21.8533 35.06 21.97C35.06 22.0867 35.1063 22.1986 35.1889 22.2811C35.2714 22.3636 35.3833 22.41 35.5 22.41C35.6167 22.41 35.7286 22.3636 35.8111 22.2811C35.8936 22.1986 35.94 22.0867 35.94 21.97C35.94 21.8533 35.8936 21.7414 35.8111 21.6589C35.7286 21.5763 35.6167 21.53 35.5 21.53ZM35.94 36.53H35.06V33.41C35.06 33.2933 35.0136 33.1814 34.9311 33.0989C34.8486 33.0163 34.7367 32.97 34.62 32.97H32.86V32.09H34.62C34.9693 32.0926 35.3035 32.2325 35.5505 32.4795C35.7975 32.7265 35.9374 33.0607 35.94 33.41V36.53ZM35.5 40C35.2385 40.002 34.9823 39.9262 34.7639 39.7824C34.5455 39.6386 34.3748 39.4331 34.2734 39.1921C34.1719 38.9511 34.1443 38.6854 34.1941 38.4287C34.2439 38.1719 34.3689 37.9358 34.5531 37.7502C34.7373 37.5646 34.9724 37.4379 35.2288 37.3861C35.4851 37.3344 35.751 37.3599 35.9928 37.4595C36.2346 37.5592 36.4413 37.7283 36.5868 37.9456C36.7323 38.1629 36.81 38.4185 36.81 38.68C36.8074 39.0276 36.6689 39.3603 36.424 39.607C36.1792 39.8537 35.8475 39.9948 35.5 40ZM35.5 38.24C35.4418 38.2386 35.384 38.2491 35.33 38.2707C35.276 38.2923 35.2269 38.3247 35.1858 38.3658C35.1447 38.4069 35.1123 38.456 35.0907 38.51C35.0691 38.564 35.0586 38.6218 35.06 38.68C35.06 38.7967 35.1063 38.9086 35.1889 38.9911C35.2714 39.0736 35.3833 39.12 35.5 39.12C35.6167 39.12 35.7286 39.0736 35.8111 38.9911C35.8936 38.9086 35.94 38.7967 35.94 38.68C35.9348 38.5668 35.8862 38.46 35.8042 38.3817C35.7223 38.3035 35.6133 38.2599 35.5 38.26V38.24ZM37.25 30.75H32.86V29.87H37.25C37.6001 29.87 37.9358 29.7309 38.1834 29.4834C38.4309 29.2358 38.57 28.9001 38.57 28.55V27.25H39.45V28.57C39.4513 28.8593 39.3953 29.1459 39.2852 29.4135C39.1751 29.681 39.0131 29.924 38.8086 30.1286C38.604 30.3331 38.361 30.4951 38.0935 30.6052C37.8259 30.7153 37.5393 30.7713 37.25 30.77V30.75ZM39 26.37C38.7389 26.37 38.4837 26.2926 38.2666 26.1475C38.0496 26.0025 37.8804 25.7963 37.7805 25.5551C37.6806 25.3139 37.6544 25.0485 37.7053 24.7925C37.7563 24.5364 37.882 24.3012 38.0666 24.1166C38.2512 23.932 38.4864 23.8063 38.7425 23.7554C38.9985 23.7044 39.2639 23.7306 39.5051 23.8305C39.7463 23.9304 39.9525 24.0996 40.0975 24.3166C40.2426 24.5337 40.32 24.7889 40.32 25.05C40.3174 25.3993 40.1775 25.7335 39.9305 25.9805C39.6835 26.2275 39.3493 26.3674 39 26.37ZM39 24.61C38.913 24.61 38.8279 24.6358 38.7555 24.6841C38.6832 24.7325 38.6268 24.8012 38.5935 24.8816C38.5602 24.962 38.5515 25.0505 38.5684 25.1358C38.5854 25.2212 38.6273 25.2996 38.6889 25.3611C38.7504 25.4227 38.8288 25.4646 38.9141 25.4815C38.9995 25.4985 39.088 25.4898 39.1684 25.4565C39.2488 25.4232 39.3175 25.3668 39.3658 25.2944C39.4142 25.2221 39.44 25.137 39.44 25.05C39.44 24.9333 39.3936 24.8214 39.3111 24.7389C39.2286 24.6563 39.1167 24.61 39 24.61ZM38.56 32.09H39.44V36.5H38.56V32.09ZM40.76 25.93H41.64V32.93H40.76V25.93ZM40.76 33.85H41.64V34.73H40.76V33.85Z" fill="#4EA8ED"/>
<path d="M28.46 19.77H29.34V20.65H28.46V19.77ZM26.26 29.89H27.14V30.77H26.26V29.89ZM28.9 39.58H29.78V40.46H28.9V39.58ZM21.43 33H22.31V33.88H21.43V33ZM29.34 26.84H30.22V27.72H29.34V26.84ZM21 27.69H21.88V28.57H21V27.69Z" fill="#04162B"/>
<path d="M34.62 28.57H32.86V27.69H34.62C34.7367 27.69 34.8486 27.6436 34.9311 27.5611C35.0136 27.4786 35.06 27.3667 35.06 27.25V24.17H35.94V27.25C35.9374 27.5993 35.7975 27.9335 35.5505 28.1805C35.3035 28.4275 34.9693 28.5674 34.62 28.57ZM35.5 23.29C35.2372 23.2919 34.9799 23.2154 34.7609 23.0702C34.5419 22.925 34.3712 22.7177 34.2707 22.4749C34.1702 22.2322 34.1444 21.9649 34.1967 21.7074C34.249 21.4499 34.3769 21.2139 34.5642 21.0295C34.7514 20.8451 34.9894 20.7208 35.2476 20.6725C35.5059 20.6242 35.7727 20.6541 36.0139 20.7583C36.2551 20.8626 36.4597 21.0364 36.6016 21.2576C36.7434 21.4788 36.816 21.7373 36.81 22C36.8022 22.3431 36.6611 22.6697 36.4165 22.9106C36.1719 23.1514 35.8432 23.2875 35.5 23.29ZM35.5 21.53C35.3833 21.53 35.2714 21.5763 35.1889 21.6589C35.1063 21.7414 35.06 21.8533 35.06 21.97C35.06 22.0867 35.1063 22.1986 35.1889 22.2811C35.2714 22.3636 35.3833 22.41 35.5 22.41C35.6167 22.41 35.7286 22.3636 35.8111 22.2811C35.8936 22.1986 35.94 22.0867 35.94 21.97C35.94 21.8533 35.8936 21.7414 35.8111 21.6589C35.7286 21.5763 35.6167 21.53 35.5 21.53ZM35.94 36.53H35.06V33.41C35.06 33.2933 35.0136 33.1814 34.9311 33.0989C34.8486 33.0163 34.7367 32.97 34.62 32.97H32.86V32.09H34.62C34.9693 32.0926 35.3035 32.2325 35.5505 32.4795C35.7975 32.7265 35.9374 33.0607 35.94 33.41V36.53ZM35.5 40C35.2385 40.002 34.9823 39.9262 34.7639 39.7824C34.5455 39.6386 34.3748 39.4331 34.2734 39.1921C34.1719 38.9511 34.1443 38.6854 34.1941 38.4287C34.2439 38.1719 34.3689 37.9358 34.5531 37.7502C34.7373 37.5646 34.9724 37.4379 35.2288 37.3861C35.4851 37.3344 35.751 37.3599 35.9928 37.4595C36.2346 37.5592 36.4413 37.7283 36.5868 37.9456C36.7323 38.1629 36.81 38.4185 36.81 38.68C36.8074 39.0276 36.6689 39.3603 36.424 39.607C36.1792 39.8537 35.8475 39.9948 35.5 40ZM35.5 38.24C35.4418 38.2386 35.384 38.2491 35.33 38.2707C35.276 38.2923 35.2269 38.3247 35.1858 38.3658C35.1447 38.4069 35.1123 38.456 35.0907 38.51C35.0691 38.564 35.0586 38.6218 35.06 38.68C35.06 38.7967 35.1063 38.9086 35.1889 38.9911C35.2714 39.0736 35.3833 39.12 35.5 39.12C35.6167 39.12 35.7286 39.0736 35.8111 38.9911C35.8936 38.9086 35.94 38.7967 35.94 38.68C35.9348 38.5668 35.8862 38.46 35.8042 38.3817C35.7223 38.3035 35.6133 38.2599 35.5 38.26V38.24ZM37.25 30.75H32.86V29.87H37.25C37.6001 29.87 37.9358 29.7309 38.1834 29.4834C38.4309 29.2358 38.57 28.9001 38.57 28.55V27.25H39.45V28.57C39.4513 28.8593 39.3953 29.1459 39.2852 29.4135C39.1751 29.681 39.0131 29.924 38.8086 30.1286C38.604 30.3331 38.361 30.4951 38.0935 30.6052C37.8259 30.7153 37.5393 30.7713 37.25 30.77V30.75ZM39 26.37C38.7389 26.37 38.4837 26.2926 38.2666 26.1475C38.0496 26.0025 37.8804 25.7963 37.7805 25.5551C37.6806 25.3139 37.6544 25.0485 37.7053 24.7925C37.7563 24.5364 37.882 24.3012 38.0666 24.1166C38.2512 23.932 38.4864 23.8063 38.7425 23.7554C38.9985 23.7044 39.2639 23.7306 39.5051 23.8305C39.7463 23.9304 39.9525 24.0996 40.0975 24.3166C40.2426 24.5337 40.32 24.7889 40.32 25.05C40.3174 25.3993 40.1775 25.7335 39.9305 25.9805C39.6835 26.2275 39.3493 26.3674 39 26.37ZM39 24.61C38.913 24.61 38.8279 24.6358 38.7555 24.6841C38.6832 24.7325 38.6268 24.8012 38.5935 24.8816C38.5602 24.962 38.5515 25.0505 38.5684 25.1358C38.5854 25.2212 38.6273 25.2996 38.6889 25.3611C38.7504 25.4227 38.8288 25.4646 38.9141 25.4815C38.9995 25.4985 39.088 25.4898 39.1684 25.4565C39.2488 25.4232 39.3175 25.3668 39.3658 25.2944C39.4142 25.2221 39.44 25.137 39.44 25.05C39.44 24.9333 39.3936 24.8214 39.3111 24.7389C39.2286 24.6563 39.1167 24.61 39 24.61ZM38.56 32.09H39.44V36.5H38.56V32.09ZM40.76 25.93H41.64V32.93H40.76V25.93ZM40.76 33.85H41.64V34.73H40.76V33.85Z" fill="#4EA8ED"/>
<path d="M28.46 19.77H29.34V20.65H28.46V19.77ZM26.26 29.89H27.14V30.77H26.26V29.89ZM28.9 39.58H29.78V40.46H28.9V39.58ZM21.43 33H22.31V33.88H21.43V33ZM29.34 26.84H30.22V27.72H29.34V26.84ZM21 27.69H21.88V28.57H21V27.69Z" fill="#4EA8ED"/>
<path d="M28.44 16.77C28.9918 16.77 29.5359 16.9004 30.0277 17.1506C30.5195 17.4009 30.9452 17.7639 31.27 18.21C31.4066 17.9123 31.6042 17.6466 31.85 17.43C32.0921 17.2258 32.3751 17.0758 32.68 16.99C32.985 16.9005 33.3061 16.88 33.62 16.93C36.8546 17.4135 39.808 19.0424 41.9429 21.52C44.0777 23.9977 45.252 27.1595 45.252 30.43C45.252 33.7005 44.0777 36.8624 41.9429 39.34C39.808 41.8177 36.8546 43.4465 33.62 43.93C33.1079 44.0111 32.5836 43.9079 32.1405 43.6387C31.6973 43.3695 31.3641 42.9519 31.2 42.46C30.7129 43.0902 30.0488 43.5607 29.2928 43.8111C28.5367 44.0615 27.7231 44.0806 26.9561 43.8657C26.1892 43.6509 25.5038 43.212 24.9879 42.6052C24.4719 41.9985 24.1488 41.2515 24.06 40.46C23.6358 40.3404 23.2431 40.1287 22.91 39.84C22.5772 39.5442 22.3084 39.1835 22.12 38.78C21.1904 38.6287 20.3441 38.1541 19.73 37.44C19.1026 36.729 18.7482 35.8181 18.73 34.87C18.7424 34.4241 18.8338 33.984 19 33.57C18.3526 32.8911 17.9687 32.0034 17.9174 31.0667C17.8661 30.13 18.1507 29.2056 18.72 28.46C18.4995 28.0204 18.3742 27.5392 18.3521 27.0479C18.3301 26.5566 18.4118 26.0662 18.592 25.6085C18.7723 25.1509 19.0469 24.7364 19.398 24.3921C19.7492 24.0477 20.169 23.7813 20.63 23.61C20.7196 23.2663 20.8759 22.9435 21.09 22.66C21.3016 22.3768 21.5708 22.1416 21.88 21.97C21.8983 21.0513 22.2762 20.1764 22.9325 19.5332C23.5888 18.89 24.4711 18.5298 25.39 18.53C25.6983 17.994 26.1427 17.5489 26.6783 17.2399C27.2139 16.9308 27.8216 16.7687 28.44 16.77ZM28.44 17.65C27.7398 17.65 27.0683 17.9282 26.5732 18.4233C26.0781 18.9184 25.8 19.5899 25.8 20.29C25.8 20.9902 26.0781 21.6617 26.5732 22.1568C27.0683 22.6519 27.7398 22.93 28.44 22.93V23.81C27.9016 23.8161 27.3691 23.6982 26.8836 23.4656C26.398 23.2329 25.9725 22.8917 25.64 22.4682C25.3074 22.0448 25.0768 21.5506 24.9658 21.0238C24.8548 20.4969 24.8665 19.9516 25 19.43C24.4305 19.502 23.9002 19.7584 23.49 20.16C23.0813 20.558 22.8113 21.0769 22.72 21.64C22.8565 21.6301 22.9935 21.6301 23.13 21.64C23.8302 21.64 24.5017 21.9182 24.9968 22.4133C25.4919 22.9084 25.77 23.5799 25.77 24.28H24.89C24.8979 23.9287 24.8004 23.583 24.6101 23.2875C24.4198 22.992 24.1454 22.7603 23.8222 22.6221C23.499 22.484 23.1419 22.4458 22.7968 22.5124C22.4517 22.579 22.1345 22.7474 21.8859 22.996C21.6374 23.2445 21.469 23.5617 21.4024 23.9068C21.3357 24.2519 21.3739 24.609 21.5121 24.9322C21.6502 25.2554 21.882 25.5298 22.1774 25.7201C22.4729 25.9104 22.8186 26.0079 23.17 26V26.88C22.531 26.8805 21.9137 26.6484 21.4334 26.227C20.9531 25.8055 20.6426 25.2237 20.56 24.59C20.2491 24.7626 19.9766 24.9966 19.759 25.2778C19.5415 25.5591 19.3834 25.8817 19.2946 26.226C19.2057 26.5703 19.1878 26.929 19.242 27.2804C19.2963 27.6319 19.4215 27.9686 19.61 28.27L19.78 28.55L19.56 28.79C19.0819 29.3186 18.8034 29.9974 18.7723 30.7094C18.7413 31.4214 18.9597 32.1219 19.39 32.69C19.7484 32.1277 20.2417 31.6639 20.825 31.3408C21.4083 31.0177 22.0632 30.8456 22.73 30.84V31.73C22.1582 31.7282 21.5972 31.886 21.1102 32.1859C20.6233 32.4857 20.2298 32.9156 19.9741 33.4271C19.7183 33.9385 19.6105 34.5113 19.6628 35.0807C19.7151 35.6502 19.9254 36.1937 20.27 36.65C20.6651 37.1876 21.2281 37.5782 21.87 37.76C21.87 37.66 21.87 37.55 21.87 37.45C21.87 36.6332 22.1945 35.8497 22.7721 35.2721C23.3497 34.6945 24.1331 34.37 24.95 34.37V35.25C24.3665 35.25 23.8069 35.4818 23.3944 35.8944C22.9818 36.307 22.75 36.8666 22.75 37.45C22.7512 37.8873 22.8798 38.3147 23.12 38.68C23.3657 39.0408 23.7141 39.3195 24.12 39.48C24.2742 38.5575 24.7468 37.7182 25.4557 37.108C26.1645 36.4978 27.0648 36.1553 28 36.14V37C27.3908 37 26.7953 37.1807 26.2888 37.5191C25.7823 37.8575 25.3876 38.3386 25.1544 38.9014C24.9213 39.4642 24.8603 40.0834 24.9792 40.6809C25.098 41.2784 25.3914 41.8272 25.8221 42.2579C26.2529 42.6887 26.8017 42.982 27.3991 43.1008C27.9966 43.2197 28.6159 43.1587 29.1787 42.9256C29.7415 42.6925 30.2225 42.2977 30.5609 41.7912C30.8994 41.2847 31.08 40.6892 31.08 40.08V20.29C31.08 19.5899 30.8019 18.9184 30.3068 18.4233C29.8117 17.9282 29.1402 17.65 28.44 17.65ZM33.49 17.8C33.3021 17.7601 33.1079 17.7601 32.92 17.8C32.7387 17.8599 32.5695 17.9513 32.42 18.07C32.2769 18.1946 32.1619 18.3482 32.0826 18.5206C32.0033 18.693 31.9615 18.8803 31.96 19.07V41.72C31.9604 41.913 32.0013 42.1038 32.08 42.28C32.1636 42.4503 32.279 42.603 32.42 42.73C32.5695 42.8488 32.7387 42.9402 32.92 43C33.1079 43.04 33.3021 43.04 33.49 43C36.4961 42.5273 39.2346 40.9967 41.2122 38.6839C43.1897 36.3711 44.2764 33.4281 44.2764 30.385C44.2764 27.342 43.1897 24.399 41.2122 22.0862C39.2346 19.7733 36.4961 18.2427 33.49 17.77V17.8Z" fill="white"/>
<path d="M25.25 45.72C22.1277 44.5583 19.4354 42.4695 17.5343 39.7338C15.6332 36.9981 14.6143 33.7464 14.6143 30.415C14.6143 27.0836 15.6332 23.8319 17.5343 21.0962C19.4354 18.3605 22.1277 16.2717 25.25 15.11V0C18.1513 1.32463 11.7396 5.09051 7.12543 10.6453C2.51131 16.2001 -0.0145264 23.1938 -0.0145264 30.415C-0.0145264 37.6362 2.51131 44.6299 7.12543 50.1847C11.7396 55.7395 18.1513 59.5054 25.25 60.83V45.72Z" fill="#4EA8ED"/>
<path d="M38.36 6.17999V15.11C41.4823 16.2717 44.1746 18.3605 46.0756 21.0962C47.9767 23.8319 48.9956 27.0836 48.9956 30.415C48.9956 33.7464 47.9767 36.9981 46.0756 39.7338C44.1746 42.4695 41.4823 44.5583 38.36 45.72V54.65C43.8202 53.3621 48.6855 50.2681 52.1674 45.8694C55.6493 41.4707 57.5438 36.025 57.5438 30.415C57.5438 24.805 55.6493 19.3593 52.1674 14.9606C48.6855 10.5619 43.8202 7.46786 38.36 6.17999Z" fill="white"/>
<path d="M54.46 9.99998L57.69 9.70998C54.469 6.30213 50.5168 3.6694 46.131 2.01002C41.7452 0.350627 37.0402 -0.292183 32.37 0.12998C31.82 0.12998 31.29 0.23998 30.76 0.31998C35.1719 0.15273 39.5686 0.929814 43.6559 2.59922C47.7432 4.26863 51.4268 6.79184 54.46 9.99998Z" fill="#4EA8ED"/>
<path d="M54.23 50C51.3401 53.3297 47.7732 56.0047 43.7673 57.8464C39.7615 59.6881 35.4089 60.6541 31 60.68C31.53 60.68 32.07 60.77 32.61 60.8C37.2899 61.0172 41.9582 60.1708 46.264 58.3244C50.5698 56.4781 54.4011 53.6799 57.47 50.14L54.23 50Z" fill="#4EA8ED"/>
</svg>
